<svg width="171" height="31" viewBox="0 0 171 31" fill="none" xmlns="http://www.w3.org/2000/svg">
<path d="M47.6141 24.2711L46.4178 25.0739L46.609 26.3883L47.9934 26.9012L49.1897 26.0983L48.9985 24.7826L47.6141 24.2711ZM1.98784 15.5382L0 16.8737L0.316621 19.0622L2.62108 19.9139L4.60892 18.5784L4.2923 16.3899L1.98784 15.5382ZM10.559 12.1843L10.338 10.6497L8.48304 9.96417L6.88351 11.0386L7.05228 12.1988L5.62898 13.1546L6.05612 16.1064L9.16557 17.2574L11.8479 15.4538L11.4207 12.502L10.559 12.1843Z" fill="#1A1233"/>
<path d="M46.7445 11.4447L48.2917 7.77966L48.0886 4.07374L47.8945 2.10543L46.3457 2.0751L44.9687 3.92081L44.9568 2.73429L43.9576 2.22803L42.7628 3.09815L42.0265 6.48767L42.7628 10.7987C42.7628 10.7987 41.7697 11.1942 41.6128 11.2536C41.5352 11.2839 41.3276 11.3682 41.117 11.4605L40.9677 10.4362L35.3446 8.35711L35.0086 8.58255L34.8727 7.63728L28.2565 5.19172L26.3643 6.46262L24.6049 5.81135L22.632 7.12971L20.798 6.45207L23.0099 4.96628L22.4931 1.39219L18.728 0L15.4797 2.18321L15.8994 5.08361L13.5247 6.67883L13.8085 8.64451L13.0259 9.17186L13.8802 15.0742L20.0976 17.3734L23.4281 15.1322L23.4535 15.3009L25.2904 15.9812L25.6803 18.6786L31.0568 20.6667L31.8857 20.1103L34.1155 21.1136L33.9124 23.1782L38.2047 27.3508V27.3719L38.2346 27.3824L38.3406 27.4839L38.4272 27.4536L39.3233 27.7858L40.2911 27.1359L40.1417 26.072L39.053 25.6764L38.9813 25.6053L38.0942 23.401L39.1396 20.8486L39.2666 20.8236L39.2486 20.8354L39.5473 22.9369L41.586 23.6897L41.7159 24.5941L43.5947 25.2888L45.2151 24.1999L44.9583 22.4161L43.5917 21.9112L43.3692 20.37L42.7106 20.1275L43.4917 19.9693H47.5988L49.6762 18.7392V14.0933L46.7445 11.4447Z" fill="#1A1233"/>
<path opacity="0.77" d="M40.9651 10.4322L35.3421 8.35315L30.4897 11.6121L31.2619 16.9502L36.8864 19.0293L41.7373 15.7703L40.9651 10.4322Z" fill="#A1BEFF"/>
<path opacity="0.74" d="M34.87 7.63328L28.2538 5.1864L22.5457 9.02152L23.4537 15.3035L30.0699 17.7491L35.7795 13.9153L34.87 7.63328Z" fill="#A1BEFF"/>
<path opacity="0.79" d="M24.6096 7.86405L18.3922 5.56482L13.0276 9.16923L13.8804 15.0729L20.0993 17.3708L25.4639 13.7677L24.6096 7.86405Z" fill="#A1BEFF"/>
<path opacity="0.7" d="M19.0735 6.05393L16.0954 4.95178L13.5251 6.67884L13.9344 9.50541L16.9124 10.6062L19.4827 8.88051L19.0735 6.05393Z" fill="#A1BEFF"/>
<path opacity="0.37" d="M27.9487 7.044L24.6032 5.80737L21.7163 7.74669L22.1748 10.9239L25.5217 12.1606L28.4087 10.2213L27.9487 7.044Z" fill="#A1BEFF"/>
<path opacity="0.7" d="M44.9561 22.4148L43.5895 21.9099L43.367 20.37L41.1521 19.5513L39.2419 20.8341L39.5466 22.9369L41.5837 23.6897L41.7152 24.5928L43.594 25.2875L45.2144 24.1986L44.9561 22.4148Z" fill="#A1BEFF"/>
<path d="M40.1347 26.0719L39.0145 25.658L38.0482 26.3066L38.2021 27.3705L39.3222 27.7845L40.2885 27.1359L40.1347 26.0719ZM48.9985 24.7826L47.6141 24.271L46.4178 25.0739L46.609 26.3883L47.9934 26.9012L49.1897 26.0983L48.9985 24.7826ZM4.2923 16.3899L1.98784 15.5382L0 16.8737L0.316621 19.0622L2.62108 19.9139L4.60892 18.5784L4.2923 16.3899Z" fill="#A1BEFF"/>
<path opacity="0.29" d="M11.4214 12.502L8.31195 11.3524L5.62964 13.1546L6.05678 16.1064L9.16623 17.2574L11.8485 15.4538L11.4214 12.502Z" fill="#A1BEFF"/>
<path opacity="0.46" d="M39.9953 12.0591C40.1446 11.9273 41.45 11.3116 41.6068 11.2496L42.7568 10.7948L42.0205 6.48373L42.7568 3.09422L43.9516 2.2241L44.9507 2.74353L44.9627 3.93006L46.3397 2.08435L47.8884 2.11467L48.0826 4.08299L48.2857 7.78891L46.7384 11.454L49.6672 14.0907V18.7432L47.5897 19.9732H43.4826L39.138 20.8486L38.0926 23.401L38.9708 25.6L40.2238 26.8248L38.333 27.4839L33.9108 23.1782L34.1229 21.1162L31.1777 19.79L30.3264 14.0933L35.246 10.9213L39.9953 12.0591Z" fill="#A1BEFF"/>
<mask id="mask0_7_339" style="mask-type:luminance" maskUnits="userSpaceOnUse" x="30" y="2" width="20" height="26">
<path d="M39.9953 12.0591C40.1446 11.9273 41.45 11.3116 41.6068 11.2496L42.7568 10.7948L42.0205 6.48373L42.7568 3.09422L43.9516 2.2241L44.9507 2.74353L44.9627 3.93006L46.3397 2.08435L47.8884 2.11467L48.0826 4.08299L48.2857 7.78891L46.7384 11.454L49.6672 14.0907V18.7432L47.5897 19.9732H43.4826L39.138 20.8486L38.0926 23.401L38.9708 25.6L40.2238 26.8248L38.333 27.4839L33.9108 23.1782L34.1229 21.1162L31.1777 19.79L30.3264 14.0933L35.246 10.9213L39.9953 12.0591Z" fill="#A1BEFF"/>
</mask>
<g mask="url(#mask0_7_339)">
<path d="M40.6017 11.7205C40.751 11.5886 41.45 11.3065 41.6068 11.2445L42.7568 10.7897L42.0205 6.47866L42.7568 3.08915L43.9516 2.21903L44.9507 2.73847L44.9627 3.92499L46.3397 2.07928L47.8884 2.10961L48.0826 4.07792L48.2857 7.78384L46.7384 11.4489L49.6672 14.0856V18.7381L47.5897 19.9682H43.4826L39.138 20.8488L38.0926 23.4012L38.9708 25.6002L40.2238 26.825L38.333 27.4841L33.9108 23.1784L34.1229 21.1165L31.1777 19.7902L30.3264 14.0935L35.7747 9.90641L40.6017 11.7205Z" fill="#A1BEFF"/>
</g>
<path opacity="0.7" d="M10.3387 10.6498L8.48381 9.96423L6.88428 11.0387L7.13967 12.7987L8.99309 13.4843L10.5926 12.4098L10.3387 10.6498Z" fill="#A1BEFF"/>
<path opacity="0.22" d="M34.9593 12.4467L29.5812 10.4573L24.9409 13.5752L25.6802 18.6799L31.0583 20.6693L35.6971 17.5514L34.9593 12.4467Z" fill="#A1BEFF"/>
<path opacity="0.22" d="M36.5609 11.9391L32.4792 10.4296L28.9575 12.796L29.5191 16.6707L33.6008 18.1789L37.121 15.8138L36.5609 11.9391Z" fill="#A1BEFF"/>
<path d="M22.4941 1.39219L18.729 0L15.4822 2.18189L15.9989 5.75598L19.7625 7.14817L23.0109 4.96628L22.4941 1.39219Z" fill="#A1BEFF"/>
<g style="mix-blend-mode:color" opacity="0.3">
<path d="M47.6141 24.2711L46.4178 25.0739L46.609 26.3883L47.9934 26.9012L49.1897 26.0983L48.9985 24.7826L47.6141 24.2711ZM1.98784 15.5382L0 16.8737L0.316621 19.0622L2.62108 19.9139L4.60892 18.5784L4.2923 16.3899L1.98784 15.5382ZM10.559 12.1843L10.338 10.6497L8.48304 9.96417L6.88351 11.0386L7.05228 12.1988L5.62898 13.1546L6.05612 16.1064L9.16557 17.2574L11.8479 15.4538L11.4207 12.502L10.559 12.1843Z" fill="#1A1233"/>
<path d="M46.7445 11.4447L48.2917 7.77966L48.0886 4.07374L47.8945 2.10543L46.3457 2.0751L44.9687 3.92081L44.9568 2.73429L43.9576 2.22803L42.7628 3.09815L42.0265 6.48767L42.7628 10.7987C42.7628 10.7987 41.7697 11.1942 41.6128 11.2536C41.5352 11.2839 41.3276 11.3682 41.117 11.4605L40.9677 10.4362L35.3446 8.35711L35.0086 8.58255L34.8727 7.63728L28.2565 5.19172L26.3643 6.46262L24.6049 5.81135L22.632 7.12971L20.798 6.45207L23.0099 4.96628L22.4931 1.39219L18.728 0L15.4797 2.18321L15.8994 5.08361L13.5247 6.67883L13.8085 8.64451L13.0259 9.17186L13.8802 15.0742L20.0976 17.3734L23.4281 15.1322L23.4535 15.3009L25.2904 15.9812L25.6803 18.6786L31.0568 20.6667L31.8857 20.1103L34.1155 21.1136L33.9124 23.1782L38.2047 27.3508V27.3719L38.2346 27.3824L38.3406 27.4839L38.4272 27.4536L39.3233 27.7858L40.2911 27.1359L40.1417 26.072L39.053 25.6764L38.9813 25.6053L38.0942 23.401L39.1396 20.8486L39.2666 20.8236L39.2486 20.8354L39.5473 22.9369L41.586 23.6897L41.7159 24.5941L43.5947 25.2888L45.2151 24.1999L44.9583 22.4161L43.5917 21.9112L43.3692 20.37L42.7106 20.1275L43.4917 19.9693H47.5988L49.6762 18.7392V14.0933L46.7445 11.4447Z" fill="#1A1233"/>
<path d="M47.6145 24.2711L46.4182 25.074L46.6094 26.3884L47.9939 26.9013L49.1901 26.0984L48.999 24.7826L47.6145 24.2711Z" fill="url(#paint0_linear_7_339)"/>
<path d="M1.98784 15.5382L0 16.8737L0.316621 19.0622L2.62108 19.9139L4.60892 18.5784L4.2923 16.3899L1.98784 15.5382Z" fill="url(#paint1_linear_7_339)"/>
<path d="M10.5597 12.1844L10.3386 10.6498L8.48371 9.96423L6.88417 11.0387L7.05294 12.1989L5.62964 13.1547L6.05678 16.1065L9.16623 17.2574L11.8485 15.4539L11.4214 12.5021L10.5597 12.1844Z" fill="url(#paint2_linear_7_339)"/>
<path d="M46.7445 11.4447L48.2917 7.77966L48.0886 4.07374L47.8945 2.10543L46.3457 2.0751L44.9687 3.92081L44.9568 2.73429L43.9576 2.22803L42.7628 3.09815L42.0265 6.48767L42.7628 10.7987C42.7628 10.7987 41.7697 11.1942 41.6128 11.2536C41.5352 11.2839 41.3276 11.3682 41.117 11.4605L40.9677 10.4362L35.3446 8.35711L35.0086 8.58255L34.8727 7.63728L28.2565 5.19172L26.3643 6.46262L24.6049 5.81135L22.632 7.12971L20.798 6.45207L23.0099 4.96628L22.4931 1.39219L18.728 0L15.4797 2.18321L15.8994 5.08361L13.5247 6.67883L13.8085 8.64451L13.0259 9.17186L13.8802 15.0742L20.0976 17.3734L23.4281 15.1322L23.4535 15.3009L25.2904 15.9812L25.6803 18.6786L31.0568 20.6667L31.8857 20.1103L34.1155 21.1136L33.9124 23.1782L38.2047 27.3508V27.3719L38.2346 27.3824L38.3406 27.4839L38.4272 27.4536L39.3233 27.7858L40.2911 27.1359L40.1417 26.072L39.053 25.6764L38.9813 25.6053L38.0942 23.401L39.1396 20.8486L39.2666 20.8236L39.2486 20.8354L39.5473 22.9369L41.586 23.6897L41.7159 24.5941L43.5947 25.2888L45.2151 24.1999L44.9583 22.4161L43.5917 21.9112L43.3692 20.37L42.7106 20.1275L43.4917 19.9693H47.5988L49.6762 18.7392V14.0933L46.7445 11.4447Z" fill="url(#paint3_linear_7_339)"/>
</g>
<path d="M48.997 24.7839L49.1867 26.1023L47.9919 26.9052L46.6074 26.3897L46.4178 25.0713L47.6126 24.2684L48.997 24.7839ZM1.98784 15.5435L0 16.8751L0.309153 19.0622L2.61361 19.9152L4.60892 18.5757L4.2923 16.3886L1.98784 15.5435ZM10.559 12.1883L10.3365 10.655L8.48304 9.96946L6.88052 11.04L7.04779 12.1988L5.62449 13.1559L6.05163 16.1078L9.16407 17.2574L11.8524 15.4552L11.4207 12.5034L10.559 12.1883ZM46.7448 11.4487L48.2921 7.78362L48.089 4.07374L47.8948 2.10543L46.3461 2.0751L44.9691 3.92081L44.9571 2.73429L43.958 2.22803L42.7632 3.09815L42.0269 6.48767L42.7632 10.7987C42.7632 10.7987 41.77 11.1942 41.6132 11.2536C41.5355 11.2839 41.3279 11.3682 41.1174 11.4605L40.968 10.4362L35.345 8.35711L35.009 8.58255L34.8731 7.63728L28.2569 5.19172L26.3646 6.46262L24.6053 5.81135L22.6324 7.12971L20.7984 6.45207L23.0102 4.96628L22.4935 1.39219L18.7284 0L15.4801 2.18321L15.8997 5.08361L13.5251 6.67883L13.8088 8.64451L13.0262 9.17186L13.8805 15.0742L20.0979 17.3734L23.4284 15.1322L23.4538 15.3009L25.2908 15.9812L25.6806 18.6786L31.0572 20.6667L31.8861 20.1103L34.1159 21.1136L33.9127 23.1782L38.205 27.3508V27.3719L38.2349 27.3824L38.3409 27.4839L38.4276 27.4536L39.3237 27.7858L40.2915 27.1359L40.1421 26.072L39.0533 25.6764L38.9817 25.6053L38.0945 23.401L39.14 20.8486L39.2669 20.8236L39.249 20.8354L39.5477 22.9369L41.5863 23.6897L41.7162 24.5941L43.5951 25.2888L45.2155 24.1999L44.9586 22.4161L43.5921 21.9112L43.3695 20.37L42.7109 20.1275L43.492 19.9693H47.5991L49.6766 18.7392V14.0933L46.7448 11.4487Z" fill="url(#paint4_linear_7_339)"/>
<path d="M40.2252 11.7242C40.3746 11.5924 41.4514 11.3116 41.6082 11.2496L42.7582 10.7948L42.0219 6.48373L42.7582 3.09422L43.953 2.2241L44.9521 2.74353L44.9641 3.93006L46.3411 2.08435L47.8898 2.11467L48.084 4.08299L48.2871 7.78891L46.7398 11.454L49.6686 14.0907V18.7432L47.5911 19.9732H43.484L39.1394 20.8486L38.094 23.401L38.9722 25.6L40.2252 26.8248L38.3345 27.4839L33.9122 23.1782L34.1243 21.1162V19.9139L32.7339 20.6693V12.1606L35.7791 9.96948L40.2252 11.7242Z" fill="url(#paint5_linear_7_339)"/>
<path d="M58.4531 18.759V18.5534C58.4531 13.7361 60.77 11.3274 65.4038 11.3274C66.3024 11.3163 67.1954 11.4536 68.0369 11.7321C68.7222 11.9482 69.358 12.2711 69.9142 12.6853C70.4146 13.0943 70.8279 13.5792 71.1344 14.1171C71.4298 14.5986 71.6796 15.1008 71.8811 15.6187C72.0489 16.1065 72.1653 16.607 72.2291 17.1137C72.3108 17.6806 72.3521 18.037 72.3531 18.1829V18.7854L72.2918 19.7728H60.7516C60.897 21.1791 61.3844 22.2008 62.2137 22.838C63.0431 23.4752 64.2723 23.7925 65.9012 23.7899C68.2032 23.7899 70.0143 23.4427 71.3345 22.7484V24.8327C69.8062 25.4814 67.9537 25.8057 65.7772 25.8057H65.6831C64.8204 25.8132 63.9607 25.7138 63.1293 25.5104C62.3058 25.2919 61.5326 24.9465 60.8457 24.4899C60.098 24.0048 59.512 23.2757 59.0879 22.3028C58.6637 21.3298 58.4521 20.1486 58.4531 18.759ZM60.7516 17.9772H70.0546C70.0496 17.6179 70.0051 17.2598 69.9217 16.908C69.7912 16.3915 69.6144 15.885 69.393 15.3932C69.1121 14.7584 68.6107 14.2185 67.9607 13.8508C67.2717 13.4394 66.4189 13.2338 65.4024 13.2338C63.8252 13.2338 62.6802 13.5946 61.9673 14.3161C61.2544 15.0377 60.8492 16.2581 60.7516 17.9772ZM76.1286 30.7825V15.7532C76.1309 15.3633 76.1963 14.9758 76.3228 14.6022C76.5105 14.1009 76.7721 13.6235 77.1009 13.1823C77.4892 12.6295 78.1628 12.1817 79.1216 11.8389C80.0804 11.4962 81.2598 11.3247 82.6597 11.3247C83.241 11.3225 83.8213 11.3666 84.3936 11.4566C85.0383 11.5741 85.6575 11.7819 86.2276 12.0723C86.8831 12.3895 87.4616 12.8172 87.9302 13.3313C88.4061 13.8508 88.8079 14.5737 89.1355 15.5C89.4807 16.5539 89.6438 17.6477 89.6193 18.7445C89.6193 20.1367 89.4068 21.3206 88.9816 22.2962C88.5565 23.2718 87.9725 24.0022 87.2298 24.4873C86.5398 24.9456 85.763 25.292 84.9358 25.5104C84.1007 25.7138 83.2376 25.8132 82.3714 25.8057C81.0354 25.7997 79.7079 25.617 78.4331 25.2638V30.7825H76.1286ZM78.4271 23.2019C79.6707 23.6736 81.012 23.9116 82.3655 23.9006C84.1009 23.9006 85.3619 23.4946 86.1485 22.6825C86.935 21.8704 87.3278 20.5485 87.3268 18.7168C87.3268 17.5409 87.1845 16.5609 86.8997 15.7769C86.6149 14.9929 86.2167 14.4216 85.7049 14.063C85.2721 13.7461 84.7749 13.5049 84.2398 13.3524C83.7246 13.2281 83.1922 13.1682 82.6582 13.1744C79.8464 13.1744 78.4356 14.0041 78.4256 15.6635L78.4271 23.2019ZM92.6541 15.3774C92.6371 14.2914 93.1424 13.2499 94.0446 12.5113C94.9705 11.7203 96.3864 11.3248 98.2921 11.3248C99.7038 11.336 101.095 11.6271 102.362 12.1764V14.1935C101.213 13.5677 99.8901 13.2346 98.54 13.2311C96.1504 13.2311 94.9556 13.9457 94.9556 15.3748C94.9556 15.8608 95.2458 16.2528 95.8263 16.5508C96.4951 16.8798 97.2102 17.1293 97.953 17.293C98.7924 17.4899 99.6312 17.7259 100.47 18.001C101.315 18.2804 102.055 18.7636 102.605 19.3958C103.19 20.0506 103.482 20.8855 103.482 21.9007C103.482 23.118 102.967 24.072 101.938 24.7629C100.908 25.4537 99.4819 25.7991 97.6588 25.7991C95.9826 25.8182 94.3292 25.4549 92.8587 24.7444V22.6086C94.3831 23.4357 95.9508 23.8492 97.5617 23.8492C99.9752 23.8492 101.181 23.2032 101.18 21.9112C101.18 21.2151 100.891 20.6698 100.311 20.2751C99.676 19.8574 98.9523 19.5562 98.183 19.3892C97.3447 19.1914 96.5058 18.9761 95.6665 18.7432C94.8496 18.5196 94.1136 18.1104 93.5323 17.5567C92.9469 17.0056 92.6541 16.2792 92.6541 15.3774ZM106.369 21.2811C106.358 20.6979 106.493 20.1199 106.765 19.5883C106.995 19.1308 107.325 18.7177 107.735 18.3727C108.168 18.0377 108.662 17.7702 109.196 17.5817C109.705 17.3863 110.229 17.2241 110.764 17.0966C111.298 16.9817 111.841 16.9033 112.388 16.8619C113.013 16.8074 113.458 16.7758 113.723 16.767C113.987 16.7577 114.299 16.7525 114.662 16.7525L117.21 16.8843C117.21 15.6125 116.82 14.7051 116.039 14.1619C115.259 13.6187 114.104 13.3471 112.574 13.3471C110.994 13.327 109.423 13.5542 107.933 14.0182V12.0538C109.463 11.5738 111.074 11.3272 112.698 11.3248C114.923 11.3248 116.619 11.8205 117.787 12.8119C118.955 13.8033 119.539 15.2535 119.54 17.1625V21.372C119.54 22.2685 119.305 23.034 118.834 23.6686C118.398 24.2774 117.766 24.7572 117.019 25.0463C116.352 25.3089 115.655 25.5065 114.94 25.6356C114.309 25.7439 113.667 25.7991 113.024 25.8004C112.522 25.7996 112.021 25.7718 111.523 25.7173C110.929 25.6474 110.346 25.5228 109.782 25.3456C109.18 25.1687 108.611 24.9136 108.094 24.5888C107.577 24.2387 107.159 23.7874 106.874 23.2705C106.525 22.6532 106.352 21.9705 106.369 21.2811ZM108.667 21.2811C108.667 23.0274 110.104 23.9006 112.978 23.9006H113.024C115.835 23.9006 117.241 23.0547 117.242 21.3628V18.676C116.307 18.5518 115.363 18.4967 114.419 18.5112C110.586 18.5112 108.668 19.4345 108.667 21.2811ZM123.018 18.5191C123.018 17.0548 123.241 15.8129 123.687 14.7934C124.133 13.7739 124.731 13.0303 125.48 12.5627C126.712 11.7395 128.221 11.3038 129.766 11.3248C131.121 11.3248 132.259 11.4918 133.18 11.8257C134.101 12.1597 134.748 12.5891 135.122 13.1138C135.436 13.5383 135.687 13.9969 135.868 14.4783C135.995 14.8473 136.06 15.2305 136.063 15.616V26.1735C136.071 26.7554 135.97 27.3345 135.764 27.8874C135.538 28.446 135.199 28.9637 134.763 29.4154C134.299 29.9137 133.588 30.3022 132.63 30.5808C131.673 30.8594 130.517 30.9992 129.164 31C127.64 30.9947 126.123 30.8242 124.646 30.4925V28.5953C126.036 28.938 127.473 29.1088 128.916 29.1029C129.774 29.1166 130.63 29.0346 131.464 28.859C132.151 28.699 132.649 28.4714 132.958 28.1761C133.236 27.9238 133.453 27.623 133.592 27.2928C133.715 26.952 133.773 26.5956 133.764 26.2381V24.842C132.562 25.1851 131.306 25.3577 130.042 25.3535C129.38 25.3569 128.719 25.3039 128.068 25.1953C127.41 25.0755 126.778 24.8651 126.195 24.5717C125.564 24.2663 125.006 23.8558 124.552 23.3627C124.095 22.8697 123.724 22.2105 123.44 21.3852C123.14 20.4533 122.998 19.4875 123.018 18.5191ZM125.317 18.5112C125.317 19.5659 125.444 20.432 125.698 21.1097C125.952 21.7873 126.321 22.2922 126.807 22.6245C127.245 22.9302 127.749 23.1544 128.287 23.2836C128.863 23.403 129.454 23.4602 130.045 23.4537C131.321 23.4533 132.585 23.2349 133.767 22.8104V15.5435C133.767 13.9712 132.433 13.185 129.766 13.185C129.253 13.1785 128.741 13.2384 128.247 13.363C127.738 13.5132 127.265 13.7457 126.852 14.0485C126.367 14.3869 125.99 14.9353 125.72 15.6938C125.45 16.4523 125.315 17.3914 125.314 18.5112H125.317ZM140.073 22.2065C139.627 21.2055 139.405 19.9921 139.405 18.5665C139.405 17.141 139.627 15.9276 140.073 14.9265C140.518 13.9263 141.123 13.1793 141.89 12.6853C142.594 12.2167 143.385 11.8598 144.227 11.6306C145.081 11.4176 145.965 11.3137 146.852 11.3221C147.744 11.3143 148.633 11.4182 149.492 11.6306C150.34 11.8578 151.137 12.2148 151.846 12.6853C152.611 13.1784 153.217 13.9255 153.663 14.9265C154.109 15.9276 154.332 17.141 154.331 18.5665C154.331 19.993 154.108 21.2063 153.663 22.2065C153.218 23.2067 152.612 23.9538 151.846 24.4478C151.136 24.9155 150.34 25.2702 149.492 25.4959C148.633 25.7083 147.744 25.8121 146.852 25.8044C145.965 25.8128 145.081 25.7089 144.227 25.4959C143.386 25.2686 142.596 24.9145 141.892 24.4491C141.123 23.9551 140.517 23.2076 140.073 22.2065ZM142.937 14.4678C142.12 15.3256 141.711 16.6918 141.711 18.5665C141.711 20.4413 142.12 21.8066 142.937 22.6627C143.756 23.5214 145.065 23.9507 146.866 23.9507C148.668 23.9507 149.98 23.5258 150.805 22.6759C151.627 21.826 152.039 20.4549 152.04 18.5626C152.041 16.6703 151.629 15.2992 150.805 14.4493C149.981 13.5994 148.669 13.1744 146.866 13.1744C145.064 13.1744 143.755 13.6055 142.937 14.4678ZM157.981 25.5868V12.6985C160.069 11.7834 162.371 11.3138 164.702 11.3274C166.698 11.3274 168.247 11.7752 169.348 12.6708C170.449 13.5664 171 14.8281 171 16.4558V25.5868H168.701V16.4558C168.707 16.1004 168.66 15.7459 168.562 15.4012C168.444 15.0502 168.261 14.7188 168.02 14.4203C167.751 14.0731 167.317 13.8059 166.718 13.6187C165.986 13.4143 165.221 13.3193 164.454 13.3379C163.041 13.3485 161.636 13.5376 160.284 13.8995V25.5816L157.981 25.5868Z" fill="black"/>
<defs>
<linearGradient id="paint0_linear_7_339" x1="-3407.71" y1="-1147.1" x2="33.8144" y2="239.107" gradientUnits="userSpaceOnUse">
<stop stop-color="#5CCD53"/>
<stop offset="0.99" stop-color="#0000F3"/>
</linearGradient>
<linearGradient id="paint1_linear_7_339" x1="376.864" y1="287.517" x2="3814.99" y2="1672.35" gradientUnits="userSpaceOnUse">
<stop stop-color="#5CCD53"/>
<stop offset="0.99" stop-color="#0000F3"/>
</linearGradient>
<linearGradient id="paint2_linear_7_339" x1="172.81" y1="292.226" x2="2577.18" y2="1260.68" gradientUnits="userSpaceOnUse">
<stop stop-color="#5CCD53"/>
<stop offset="0.99" stop-color="#0000F3"/>
</linearGradient>
<linearGradient id="paint3_linear_7_339" x1="-327.043" y1="680.578" x2="3466.03" y2="2208.38" gradientUnits="userSpaceOnUse">
<stop stop-color="#5CCD53"/>
<stop offset="0.99" stop-color="#0000F3"/>
</linearGradient>
<linearGradient id="paint4_linear_7_339" x1="2318.33" y1="1389.29" x2="4917.68" y2="1389.29" gradientUnits="userSpaceOnUse">
<stop stop-color="white" stop-opacity="0"/>
<stop offset="1" stop-color="white" stop-opacity="0.8"/>
</linearGradient>
<linearGradient id="paint5_linear_7_339" x1="1726.2" y1="1272.06" x2="32.7339" y2="1272.06" gradientUnits="userSpaceOnUse">
<stop stop-color="#EEF1FE"/>
<stop offset="0.87071" stop-color="#C6D4FC"/>
<stop offset="1" stop-color="#C2D1FC" stop-opacity="0"/>
</linearGradient>
</defs>
</svg>
