<svg width="152" height="31" viewBox="0 0 152 31" fill="none" xmlns="http://www.w3.org/2000/svg">
<path d="M28.4186 8.71669C28.42 10.0171 28.1164 11.3009 27.5296 12.4741C26.9427 13.6473 26.0877 14.6803 25.0275 15.4968L0.64408 2.28951C0.55096 2.23862 0.46463 2.17755 0.386545 2.10677C0.264325 1.9925 0.167325 1.85603 0.10088 1.70568C0.034435 1.55487 0 1.39295 0 1.22964C0 0.903497 0.1358 0.590766 0.37733 0.360381C0.61886 0.129534 0.94672 0 1.28865 0H19.2846C21.7071 0 24.0303 0.918301 25.7433 2.5532C27.4563 4.18764 28.4186 6.40497 28.4186 8.71669Z" fill="#18B4F4"/>
<path d="M28.4186 22.2766C28.4191 23.4215 28.1829 24.5554 27.7241 25.613C27.2653 26.671 26.5926 27.6323 25.7443 28.4419C24.8961 29.2515 23.8887 29.8936 22.7805 30.3317C21.6723 30.7703 20.484 30.9956 19.2846 30.9956H1.2887C1.03359 30.9928 0.785271 30.9183 0.574781 30.7809C0.364776 30.6435 0.201331 30.4497 0.106756 30.2239C0.0116958 29.9982 -0.0110992 29.7507 0.0417658 29.5124C0.0941458 29.2746 0.219276 29.0567 0.401636 28.8865C0.474386 28.8171 0.555866 28.7565 0.644136 28.7061L10.2403 23.5085L25.0256 15.4987C26.0853 16.3152 26.9404 17.3478 27.5277 18.5206C28.115 19.6933 28.4191 20.9771 28.4186 22.2766Z" fill="#FD6B3C"/>
<path d="M25.0274 15.4968L10.2403 23.5085L0.644524 28.706C0.552374 28.7551 0.467014 28.8147 0.390869 28.8846C4.04971 25.3034 6.09544 20.4982 6.09107 15.4968C6.09786 10.4945 4.05262 5.68835 0.392809 2.10675C0.470894 2.17753 0.557224 2.2386 0.650829 2.28949L25.0274 15.4968Z" fill="#A97FF2"/>
<path d="M48.4035 11.367C52.6191 11.367 55.0009 14.5804 55.0009 18.4729C55.0009 22.3649 52.6191 25.5538 48.4035 25.5538C46.2127 25.5538 44.5375 24.7178 43.6117 23.2994L43.2295 25.2341H40.592V6.55857H43.8566V13.4553C44.651 12.2974 46.2127 11.367 48.4035 11.367ZM47.7458 22.8095C50.2096 22.8095 51.7427 20.9035 51.7427 18.4729C51.7427 15.9909 50.2096 14.109 47.7458 14.109C45.2825 14.109 43.747 15.9868 43.747 18.4729C43.747 20.9053 45.2548 22.8095 47.7458 22.8095ZM66.4721 19.6493V11.6826H69.7299V19.4916C69.7299 22.9756 68.0615 25.5538 63.4608 25.5538C58.8605 25.5538 57.1917 22.9672 57.1917 19.4916V11.6826H60.4499V19.6493C60.4499 21.7644 61.4892 22.8095 63.4564 22.8095C65.424 22.8095 66.4721 21.7644 66.4721 19.6493ZM72.3372 7.50139C72.3266 7.22844 72.3751 6.95642 72.4798 6.70245C72.5846 6.44847 72.7432 6.21762 72.9459 6.02517C73.1486 5.83272 73.3911 5.68237 73.6579 5.58337C73.9246 5.48483 74.2103 5.43996 74.496 5.45198C75.7332 5.45198 76.6242 6.30228 76.6242 7.51157C76.6242 8.72086 75.7332 9.51425 74.496 9.51425C73.2587 9.51425 72.3372 8.68015 72.3372 7.50139ZM130.464 7.50139C130.452 7.22937 130.501 6.95827 130.605 6.70476C130.709 6.45171 130.867 6.22132 131.068 6.02933C131.27 5.83688 131.511 5.68607 131.776 5.58661C132.042 5.48761 132.326 5.44134 132.611 5.45198C133.848 5.45198 134.74 6.30228 134.74 7.51157C134.74 8.72086 133.848 9.51425 132.611 9.51425C131.374 9.51425 130.464 8.68015 130.464 7.50139ZM126.342 21.2972C127.579 21.2972 128.47 22.1475 128.47 23.3466C128.47 24.5457 127.579 25.3511 126.342 25.3511C125.105 25.3511 124.194 24.5272 124.194 23.3466C124.183 23.0746 124.231 22.8035 124.335 22.55C124.439 22.2964 124.597 22.0661 124.798 21.8736C125 21.6812 125.242 21.5303 125.507 21.4313C125.773 21.3319 126.057 21.2865 126.342 21.2972ZM125.229 11.5512L125.694 11.578V14.4763C125.449 14.4435 125.202 14.4259 124.954 14.4226C122.655 14.4226 121.286 15.5727 121.286 18.1856V25.2406H118.028V11.6826H120.659L121.039 13.5622C121.559 12.7012 122.757 11.5512 125.229 11.5512ZM72.8528 11.6807H76.111V25.2406H72.8528V11.6807ZM79.3693 25.2406V6.55857H82.627V25.2447L79.3693 25.2406ZM96.0697 6.55857H99.328V25.2447H96.6968L96.3147 23.3096C95.4126 24.722 93.7374 25.5644 91.5253 25.5644C87.3349 25.5644 84.9531 22.3506 84.9531 18.4831C84.9531 14.6156 87.3349 11.3772 91.5253 11.3772C93.7417 11.3772 95.2753 12.3159 96.0697 13.4655V6.55857ZM92.2038 14.1132C89.7405 14.1132 88.2069 15.9946 88.2069 18.4771C88.2069 20.9077 89.7405 22.8137 92.2038 22.8137C94.6671 22.8137 96.2007 20.9077 96.2007 18.4771C96.2051 15.9868 94.6996 14.109 92.2082 14.109L92.2038 14.1132ZM115.234 21.5308C114.222 23.9596 111.866 25.5538 108.773 25.5538C104.478 25.5538 101.686 22.4958 101.686 18.4461C101.686 14.5008 104.534 11.367 108.75 11.367C112.966 11.367 115.732 14.4226 115.732 18.3947C115.746 18.719 115.716 19.0433 115.644 19.3602H104.886C105.131 21.504 106.583 22.8877 108.855 22.8877C110.417 22.8877 111.703 22.1558 112.305 20.7989L115.234 21.5308ZM104.94 17.0628H112.498C112.223 15.1813 110.855 13.9004 108.746 13.9004C106.636 13.9004 105.269 15.2077 104.94 17.0628ZM130.979 11.6807H134.237V25.2406H130.979V11.6807ZM136.563 18.4729C136.563 14.6586 139.411 11.367 143.928 11.367C148.444 11.367 151.32 14.6586 151.32 18.4729C151.32 22.2872 148.474 25.5538 143.928 25.5538C139.381 25.5538 136.563 22.2872 136.563 18.4729ZM143.928 22.8095C146.311 22.8095 148.062 21.0858 148.062 18.4729C148.062 15.8595 146.311 14.1095 143.928 14.1095C141.543 14.1095 139.817 15.8327 139.817 18.4729C139.817 21.1126 141.573 22.8095 143.928 22.8095Z" fill="black"/>
</svg>
