<svg width="145" height="39" viewBox="0 0 145 39" fill="none" xmlns="http://www.w3.org/2000/svg">
<path d="M11.2113 3.91748C9.74233 2.16726 8.4774 0.389698 8.21899 0.0205104C8.19178 -0.00683681 8.15096 -0.00683681 8.12377 0.0205104C7.86534 0.389698 6.60043 2.16726 5.13148 3.91748C-7.47689 20.0659 7.11728 30.9639 7.11728 30.9639L7.23969 31.0459C7.34849 32.7277 7.62052 35.148 7.62052 35.148H8.16457H8.70862C8.70862 35.148 8.98065 32.7414 9.08947 31.0459L9.21187 30.9502C9.22546 30.9639 23.8197 20.0659 11.2113 3.91748ZM8.16457 30.7177C8.16457 30.7177 7.51172 30.1571 7.33489 29.87V29.8426L8.12377 12.2584C8.12377 12.2037 8.20538 12.2037 8.20538 12.2584L8.99424 29.8426V29.87C8.81743 30.1571 8.16457 30.7177 8.16457 30.7177Z" fill="#01EC64"/>
<path d="M35.4766 27.1295L29.395 12.2131L29.3814 12.1719H24.6498V13.1745H25.4133C25.6451 13.1745 25.8633 13.2707 26.027 13.4355C26.1906 13.6003 26.2724 13.8201 26.2724 14.0536L26.1361 29.0662C26.1361 29.5331 25.7544 29.9176 25.2906 29.9315L24.5134 29.9451V30.9341H29.1224V29.9451L28.6451 29.9315C28.1815 29.9176 27.7996 29.5331 27.7996 29.0662V14.9189L34.4267 30.9341C34.522 31.1675 34.7402 31.3186 34.9858 31.3186C35.2312 31.3186 35.4493 31.1675 35.5448 30.9341L42.0218 15.276L42.1173 29.0662C42.1173 29.5469 41.7354 29.9315 41.2582 29.9451H40.7673V30.9341H46.1671V29.9451H45.4307C44.9671 29.9451 44.5853 29.5469 44.5716 29.0798L44.5308 14.0673C44.5308 13.5866 44.9125 13.202 45.3762 13.1883L46.1671 13.1745V12.1719H41.5581L35.4766 27.1295ZM77.8807 29.6838C77.7302 29.5325 77.6482 29.3261 77.6482 29.0785V21.7037C77.6482 20.3004 77.2381 19.1996 76.4178 18.4154C75.6113 17.631 74.4902 17.2321 73.0958 17.2321C71.1407 17.2321 69.5959 18.0301 68.5158 19.5986C68.5022 19.6261 68.4612 19.6399 68.4202 19.6399C68.3791 19.6399 68.3518 19.6123 68.3518 19.5711L67.8459 17.6035H66.9983L64.8246 18.8556V19.5435H65.3852C65.6449 19.5435 65.8636 19.6123 66.0141 19.75C66.1644 19.8876 66.2464 20.094 66.2464 20.3828V29.0647C66.2464 29.3123 66.1644 29.5187 66.0141 29.6701C65.8636 29.8214 65.6586 29.904 65.4125 29.904H64.8656V30.9083H69.8692V29.904H69.3224C69.0764 29.904 68.8713 29.8214 68.7209 29.6701C68.5706 29.5187 68.4884 29.3123 68.4884 29.0647V23.3135C68.4884 22.5843 68.6525 21.8551 68.9534 21.1395C69.2677 20.4379 69.7325 19.8463 70.3478 19.3923C70.9629 18.9382 71.7012 18.718 72.5488 18.718C73.5058 18.718 74.2305 19.0207 74.6815 19.6261C75.1327 20.2316 75.3652 21.0158 75.3652 21.9514V29.051C75.3652 29.2985 75.283 29.5049 75.1327 29.6563C74.9824 29.8077 74.7773 29.8902 74.5312 29.8902H73.9844V30.8945H78.988V29.8902H78.4412C78.2361 29.9178 78.0446 29.8352 77.8807 29.6838ZM123.595 13.295C122.212 12.5554 120.666 12.1719 118.998 12.1719H112.49V13.1717H113.127C113.371 13.1717 113.588 13.2676 113.805 13.4867C114.009 13.6921 114.117 13.925 114.117 14.1715V28.9087C114.117 29.1552 114.009 29.3881 113.805 29.5935C113.602 29.7989 113.371 29.9085 113.127 29.9085H112.49V30.9083H118.998C120.666 30.9083 122.212 30.5249 123.595 29.7853C124.978 29.0456 126.104 27.9499 126.917 26.553C127.731 25.156 128.151 23.4713 128.151 21.5538C128.151 19.6364 127.731 17.9654 126.917 16.5547C126.09 15.1303 124.978 14.0483 123.595 13.295ZM125.534 21.5264C125.534 23.2796 125.222 24.7587 124.612 25.9503C124.002 27.1419 123.188 28.0321 122.185 28.6075C121.182 29.1827 120.07 29.4703 118.876 29.4703H117.561C117.317 29.4703 117.1 29.3744 116.883 29.1552C116.68 28.9498 116.571 28.717 116.571 28.4704V14.5688C116.571 14.3222 116.666 14.1031 116.883 13.8839C117.087 13.6785 117.317 13.5689 117.561 13.5689H118.876C120.07 13.5689 121.182 13.8565 122.185 14.4317C123.188 15.007 124.002 15.8973 124.612 17.0888C125.222 18.2941 125.534 19.787 125.534 21.5264ZM143.536 22.5263C142.934 21.8277 141.773 21.2388 140.407 20.9237C142.293 19.9787 143.263 18.6502 143.263 16.9382C143.263 16.0068 143.017 15.1714 142.524 14.4591C142.033 13.747 141.336 13.1717 140.448 12.7745C139.558 12.3773 138.519 12.1719 137.344 12.1719H129.976V13.1717H130.564C130.81 13.1717 131.029 13.2676 131.248 13.4867C131.453 13.6921 131.562 13.925 131.562 14.1715V28.9087C131.562 29.1552 131.453 29.3881 131.248 29.5935C131.043 29.7989 130.81 29.9085 130.564 29.9085H129.922V30.9083H137.919C139.135 30.9083 140.269 30.7029 141.295 30.292C142.32 29.8811 143.14 29.2785 143.728 28.4841C144.329 27.6898 144.63 26.7173 144.63 25.5942C144.616 24.3889 144.261 23.3617 143.536 22.5263ZM134.364 29.1689C134.159 28.9634 134.05 28.7307 134.05 28.4841V21.8688H137.851C139.189 21.8688 140.215 22.2112 140.926 22.896C141.636 23.5809 141.992 24.4711 141.992 25.5668C141.992 26.2242 141.827 26.868 141.528 27.4569C141.213 28.0596 140.747 28.5389 140.119 28.9087C139.504 29.2785 138.738 29.4703 137.851 29.4703H135.048C134.802 29.4703 134.583 29.3744 134.364 29.1689ZM134.064 20.458V14.5825C134.064 14.3359 134.159 14.1168 134.378 13.8975C134.583 13.6921 134.815 13.5826 135.061 13.5826H136.866C138.164 13.5826 139.121 13.9114 139.723 14.5413C140.324 15.185 140.625 16.0068 140.625 17.0204C140.625 18.0613 140.337 18.8968 139.778 19.5267C139.216 20.1431 138.369 20.458 137.249 20.458H134.064ZM58.8323 18.1057C57.7877 17.5324 56.6212 17.2321 55.3597 17.2321C54.1314 17.2321 52.9801 17.5039 51.9687 18.06L51.887 18.1057C50.8425 18.6789 50.015 19.5115 49.4046 20.5625C48.7942 21.6136 48.4822 22.8421 48.4822 24.207C48.4822 25.5719 48.7942 26.8004 49.4046 27.8514C50.015 28.9025 50.8425 29.7351 51.887 30.3084C52.9316 30.8815 54.0982 31.1819 55.3597 31.1819C56.588 31.1819 57.7392 30.9101 58.7506 30.3541L58.8323 30.3084C59.8768 29.7351 60.7043 28.9025 61.3147 27.8514C61.9251 26.8004 62.2371 25.5719 62.2371 24.207C62.2371 22.8421 61.9251 21.6136 61.3147 20.5625C60.7043 19.5115 59.8768 18.6789 58.8323 18.1057ZM59.8361 24.207C59.8361 25.8859 59.4292 27.2508 58.6152 28.2335C57.815 29.2163 56.7162 29.7214 55.3597 29.7214C54.0275 29.7214 52.9437 29.2342 52.1473 28.2857L52.1041 28.2335C51.2901 27.2508 50.8832 25.8859 50.8832 24.207C50.8832 22.5586 51.2755 21.2129 52.0601 20.2344L52.1041 20.1804C52.9044 19.1976 54.0032 18.6926 55.3597 18.6926C56.7162 18.6926 57.815 19.1976 58.6152 20.1804C59.4292 21.1632 59.8361 22.5281 59.8361 24.207ZM106.906 18.1057C105.862 17.5324 104.695 17.2321 103.433 17.2321C102.205 17.2321 101.054 17.5039 100.043 18.06L99.9609 18.1057C98.9163 18.6789 98.0888 19.5115 97.4785 20.5625C96.8681 21.6136 96.5561 22.8421 96.5561 24.207C96.5561 25.5719 96.8681 26.8004 97.4785 27.8514C98.0888 28.9025 98.9163 29.7351 99.9609 30.3084C101.005 30.8815 102.172 31.1819 103.433 31.1819C104.662 31.1819 105.813 30.9101 106.824 30.3541L106.906 30.3084C107.951 29.7351 108.778 28.9025 109.389 27.8514C109.999 26.8004 110.311 25.5719 110.311 24.207C110.311 22.8421 109.999 21.6136 109.389 20.5625C108.778 19.5115 107.937 18.6789 106.906 18.1057ZM107.91 24.207C107.91 25.8859 107.503 27.2508 106.689 28.2335C105.889 29.2163 104.79 29.7214 103.433 29.7214C102.101 29.7214 101.017 29.2342 100.221 28.2857L100.178 28.2335C99.364 27.2508 98.957 25.8859 98.957 24.207C98.957 22.5452 99.3493 21.2124 100.134 20.2344L100.178 20.1804C100.978 19.1976 102.077 18.6926 103.433 18.6926C104.79 18.6926 105.889 19.1976 106.689 20.1804C107.489 21.1632 107.91 22.5281 107.91 24.207ZM87.5187 17.2321C86.4257 17.2321 85.4285 17.4651 84.5268 17.9314C83.6252 18.3976 82.9148 19.0285 82.4093 19.8374C81.9039 20.6327 81.6443 21.5241 81.6443 22.4702C81.6443 23.3204 81.8355 24.1019 82.2317 24.8014C82.6142 25.4733 83.1334 26.0354 83.7891 26.5016L81.8355 29.1619C81.5896 29.4909 81.5623 29.9297 81.7399 30.2862C81.9311 30.6564 82.2863 30.8759 82.6962 30.8759H83.2564C82.7326 31.2307 82.3093 31.6484 82.0104 32.1412L81.9721 32.206C81.6169 32.7955 81.4394 33.4126 81.4394 34.0434C81.4394 35.2016 81.9401 36.1614 82.9286 36.8839L82.983 36.923C83.9941 37.6498 85.4148 38.02 87.2044 38.02C88.4477 38.02 89.6362 37.8143 90.7154 37.4166C91.7771 37.0304 92.6454 36.4629 93.2952 35.7269L93.352 35.6615C94.0215 34.8936 94.363 33.9612 94.363 32.8915C94.363 31.7672 93.9531 30.9718 92.9968 30.204C92.1773 29.5595 90.893 29.2167 89.2946 29.2167H83.8301C83.8219 29.2167 83.8137 29.2118 83.8085 29.2078L83.8027 29.2029L83.8004 29.1972C83.7972 29.1884 83.793 29.1717 83.8027 29.1619L85.2236 27.2422C85.6061 27.4204 85.9613 27.53 86.2755 27.5986C86.6033 27.6672 86.9722 27.6946 87.382 27.6946C88.5296 27.6946 89.5679 27.4615 90.4695 26.9953C91.3712 26.5291 92.0953 25.8983 92.6144 25.0892C93.1334 24.294 93.393 23.4027 93.393 22.4566C93.393 21.4418 92.9012 19.5906 91.5624 18.6444C91.5624 18.6362 91.5673 18.6329 91.5713 18.6316L91.5761 18.6308L94.5133 18.9598V17.6023H89.8137C89.076 17.3693 88.3111 17.2321 87.5187 17.2321ZM89.158 25.816C88.6389 26.0902 88.0787 26.2411 87.5187 26.2411C86.6034 26.2411 85.7973 25.912 85.1142 25.2676C84.4312 24.623 84.0897 23.6769 84.0897 22.4702C84.0897 21.2636 84.4312 20.3173 85.1142 19.6729C85.7973 19.0285 86.6034 18.6993 87.5187 18.6993C88.0686 18.6993 88.5933 18.8253 89.093 19.0891L89.158 19.1243C89.6771 19.3987 90.1007 19.8237 90.4422 20.386C90.77 20.9482 90.9476 21.6475 90.9476 22.4702C90.9476 23.3067 90.7837 24.0059 90.4422 24.5545C90.1143 25.1167 89.6771 25.5418 89.158 25.816ZM85.4558 30.8621H89.158C90.1827 30.8621 90.8384 31.0678 91.2756 31.5067C91.7127 31.9454 91.9313 32.535 91.9313 33.2207C91.9313 34.2217 91.5351 35.0445 90.7428 35.6615C89.9503 36.2786 88.8848 36.594 87.5733 36.594C86.4257 36.594 85.4694 36.3334 84.7727 35.8397C84.0759 35.3462 83.7208 34.5919 83.7208 33.6321C83.7208 33.0287 83.8847 32.4665 84.2127 31.9729C84.5405 31.4792 84.9366 31.1227 85.4558 30.8621Z" fill="#001E2B"/>
</svg>
