<svg width="86" height="30" viewBox="0 0 86 30" fill="none" xmlns="http://www.w3.org/2000/svg">
<path d="M21.2276 1.94385C19.5655 4.09315 18.3996 5.67346 17.7299 6.68477C17.0865 7.65631 16.2827 9.05027 15.3186 10.8667L16.77 19.1427C17.3384 19.2262 19.5275 19.8016 20.1482 19.837C24.3757 20.0799 25.1685 18.3075 25.2944 18.2411C25.3184 18.0798 25.7858 15.0193 24.5831 10.2103C23.8488 7.25763 22.7156 4.4659 21.2276 1.94385Z" fill="url(#paint0_radial_7_330)"/>
<path d="M15.3171 10.8667L21.2262 1.94384C18.8086 0.82557 16.2542 0.179996 13.6624 0.0322759C9.43942 -0.215957 7.04354 1.04706 6.91755 1.11305C6.89287 1.27388 6.15229 4.42585 7.3517 9.24147C7.52284 9.91992 7.9853 10.49 8.19617 11.1525L15.3171 10.8667Z" fill="url(#paint1_radial_7_330)"/>
<path d="M6.92086 1.11349L0.11117 11.3159C0.0861206 11.4763 -0.383183 14.5277 0.81623 19.3433C1.34592 21.4486 2.06959 23.4781 2.97414 25.3953L9.50019 14.5788C8.72581 12.8439 8.098 11.0224 7.62592 9.14085C6.42651 4.32522 6.89581 1.27432 6.92086 1.11349Z" fill="url(#paint2_linear_7_330)"/>
<path d="M25.2941 18.242C25.1685 18.3084 22.7807 19.5719 18.5529 19.3289C16.8995 19.23 15.2584 18.9372 13.6536 18.4548L6.34143 28.534C8.12563 29.1231 9.95918 29.4769 11.8088 29.589C16.0362 29.832 18.424 28.569 18.55 28.5025L25.2941 18.242Z" fill="url(#paint3_linear_7_330)"/>
<path d="M40.5455 19.4602C40.5455 22.3258 38.402 24.0966 35.1456 24.0966C33.5881 24.1421 32.0443 23.744 30.6437 22.9359C30.7966 21.8599 30.8872 20.773 30.9141 19.6826C32.1434 20.5226 33.5366 20.9675 34.9555 20.9736C36.5837 20.9736 37.4236 20.5231 37.4236 19.5891C37.4505 18.6556 36.8537 18.237 34.4114 17.6898C31.5893 17.0137 30.3409 15.6292 30.3409 13.1827C30.3409 10.4137 32.4849 8.61095 35.7413 8.61095C37.1005 8.59303 38.4491 8.89371 39.7108 9.49506L39.1656 12.6032C38.0896 12.0241 36.9211 11.7278 35.7398 11.734C34.2203 11.734 33.4607 12.1845 33.4607 13.0538C33.4607 13.8265 33.9764 14.1464 36.3642 14.728C39.4058 15.5003 40.5455 16.8848 40.5455 19.4602ZM47.6919 20.6839C46.4711 20.6839 45.4939 19.9112 45.4939 17.8825V12.2164H48.5882L49.1639 8.93261H45.4927V4.25639C44.4374 4.60995 43.3558 4.84026 42.2629 4.94471L42.2364 18.5289C42.2364 22.2314 44.1088 24.099 46.9036 24.099C47.4621 24.1032 48.0194 24.0337 48.565 23.8917L49.1746 20.4169C48.6957 20.6039 48.194 20.6944 47.6901 20.6839H47.6919ZM51.2261 23.8891H54.4825V8.93217H51.2264L51.2261 23.8891ZM52.8675 2.8107C51.464 2.76525 50.5453 4.53959 51.2143 6.00407C51.5303 6.69633 52.1389 7.1303 52.8027 7.13729C53.8139 7.19847 54.6604 6.23832 54.6549 5.03736C54.7061 3.82417 53.8901 2.80808 52.8664 2.8107H52.8675ZM70.0501 8.93217V21.5527C70.0501 26.3163 67.3367 29.6015 62.7502 29.6015C61.1069 29.6015 59.2838 29.1701 58.0619 28.3402C58.7239 27.554 59.3217 26.6961 59.8481 25.7775C60.6773 26.1135 61.5482 26.2848 62.4249 26.2848C65.3284 26.2848 66.7937 24.3851 66.7937 21.9705V21.4876C65.7122 22.9709 64.1315 23.8082 62.479 23.7737C59.0598 23.7737 56.4816 20.7472 56.4816 16.2721C56.4816 11.8616 59.3037 8.60964 62.7502 8.60964C64.4133 8.53622 66.0169 9.35172 67.1198 10.8311L67.2281 8.93173L70.0501 8.93217ZM66.821 16.2743C66.8313 13.0892 63.9319 11.085 61.6016 12.667C59.2716 14.2486 59.2584 18.2295 61.578 19.833C62.1151 20.204 62.7258 20.3981 63.3473 20.3954C65.2812 20.4391 66.859 18.5673 66.8217 16.2729L66.821 16.2743ZM85.2101 8.93217V21.5527C85.2101 26.3163 82.4963 29.6015 77.9101 29.6015C76.2664 29.6015 74.4437 29.1701 73.2214 28.3402C73.8834 27.554 74.4813 26.6961 75.0077 25.7775C75.8369 26.114 76.7073 26.2857 77.584 26.2857C80.4879 26.2857 81.9533 24.386 81.9533 21.9714V21.4885C80.8718 22.9717 79.2911 23.8091 77.6386 23.7746C74.2194 23.7746 71.6411 20.7481 71.6411 16.2729C71.6411 11.8624 74.4636 8.61051 77.9101 8.61051C79.5733 8.53753 81.1764 9.35259 82.2793 10.8319L82.3898 8.93261L85.2101 8.93217ZM81.9805 16.2743C81.9905 13.0896 79.0911 11.0858 76.7615 12.6679C74.4315 14.2495 74.419 18.2304 76.7386 19.833C77.2754 20.204 77.8857 20.3981 78.5072 20.3954C80.4411 20.4391 82.0189 18.5673 81.9813 16.2729L81.9805 16.2743Z" fill="#001E6C"/>
<defs>
<radialGradient id="paint0_radial_7_330" cx="0" cy="0" r="1" gradientUnits="userSpaceOnUse" gradientTransform="translate(-994.329 -443.814) scale(2814.88 3339.54)">
<stop stop-color="#FFBE6E"/>
<stop offset="0.313" stop-color="#FA9B68"/>
<stop offset="1" stop-color="#F0465A"/>
</radialGradient>
<radialGradient id="paint1_radial_7_330" cx="0" cy="0" r="1" gradientUnits="userSpaceOnUse" gradientTransform="translate(927.321 1200.01) scale(3119.79 3701.28)">
<stop stop-color="#FFBE6E"/>
<stop offset="0.282" stop-color="#FBAB69"/>
<stop offset="0.848" stop-color="#F27B5D"/>
<stop offset="1" stop-color="#F06E5A"/>
</radialGradient>
<linearGradient id="paint2_linear_7_330" x1="-46.5509" y1="-1006.58" x2="2110.83" y2="456.274" gradientUnits="userSpaceOnUse">
<stop stop-color="#003EE2"/>
<stop offset="0.108" stop-color="#1458E6"/>
<stop offset="0.259" stop-color="#2C77EC"/>
<stop offset="0.418" stop-color="#3F8EF0"/>
<stop offset="0.587" stop-color="#4C9FF3"/>
<stop offset="0.771" stop-color="#54A9F5"/>
<stop offset="1" stop-color="#57ADF6"/>
</linearGradient>
<linearGradient id="paint3_linear_7_330" x1="2379.21" y1="587.143" x2="-859.795" y2="587.143" gradientUnits="userSpaceOnUse">
<stop stop-color="#003EE2"/>
<stop offset="0.268" stop-color="#1E64E8"/>
<stop offset="0.588" stop-color="#3C8BF0"/>
<stop offset="0.844" stop-color="#4FA4F4"/>
<stop offset="1" stop-color="#57ADF6"/>
</linearGradient>
</defs>
</svg>
