<svg width="112" height="30" viewBox="0 0 112 30" fill="none" xmlns="http://www.w3.org/2000/svg">
<path d="M5.48023 22.484C5.42543 22.484 5.36987 22.4779 5.31431 22.465C4.97359 22.385 4.7712 22.0776 4.86248 21.7789C5.91847 18.3242 5.71664 9.08145 5.71418 8.98838C5.70681 8.67952 5.98744 8.4235 6.34007 8.41754C6.3446 8.41721 6.34895 8.41721 6.35311 8.41721C6.70006 8.41721 6.98466 8.66031 6.99184 8.96585C7.00072 9.35171 7.19933 18.4621 6.09686 22.069C6.02051 22.3189 5.76218 22.484 5.48023 22.484Z" fill="#0095DD"/>
<path d="M14.6904 15.5211C13.4051 15.5211 12.3229 15.0571 12.253 15.0263C11.9374 14.8882 11.8094 14.5518 11.9672 14.2753C12.1247 13.9994 12.5071 13.8868 12.8235 14.0242C12.8617 14.0408 14.8351 14.8703 16.1613 14.0116C16.445 13.8272 16.8452 13.88 17.055 14.1287C17.265 14.3775 17.2049 14.7279 16.9212 14.9119C16.2105 15.3723 15.4177 15.5211 14.6904 15.5211Z" fill="#7658B1"/>
<path d="M17.2221 20.9503C16.7113 20.9503 16.1332 20.9232 15.4831 20.8884C15.1309 20.8694 14.8627 20.6037 14.8843 20.2949C14.9058 19.9862 15.2061 19.7532 15.5612 19.7702C16.9004 19.8423 18.4181 19.9243 18.7832 19.5341C19.0495 19.2497 18.9931 18.4709 18.6159 17.2196C17.6909 14.1499 18.4954 13.1157 19.322 12.3876C19.3796 12.3371 19.4336 12.29 19.4798 12.2437C20.0384 11.6847 21.8491 10.8196 22.2065 10.652C22.5175 10.5058 22.9049 10.6085 23.0716 10.8811C23.2383 11.1537 23.1213 11.4928 22.8102 11.6392C22.0063 12.0166 20.7402 12.6828 20.4416 12.9813C20.3791 13.0442 20.3067 13.1088 20.2283 13.1778C19.7536 13.5958 19.0362 14.2276 19.8517 16.9338C20.3738 18.6665 20.3505 19.6258 19.7713 20.2445C19.2515 20.7998 18.4217 20.9503 17.2221 20.9503Z" fill="#FF8A12"/>
<path d="M15.9521 29.06C14.3733 29.06 12.8246 28.4425 11.7427 27.3245C9.19667 24.6928 7.33527 24.7173 7.31354 24.715C6.96091 24.7357 6.66687 24.4883 6.64948 24.1834C6.6321 23.8786 6.89024 23.6182 7.23757 23.5972C7.48702 23.5844 9.75566 23.5387 12.7173 26.5999C13.8405 27.761 15.5298 28.2156 17.126 27.7858C20.2356 26.949 22.4372 23.0702 23.1655 17.1444C23.8093 11.907 24.1903 6.55182 21.2353 3.66864C19.478 1.95347 16.6139 1.12015 12.4795 1.12015C3.6017 1.12015 1.77356 6.19064 1.39977 8.37066C0.836816 11.6533 2.27907 15.0541 4.48573 15.6488C4.82305 15.7397 5.01259 16.0529 4.90865 16.3488C4.8049 16.6441 4.44755 16.8095 4.11004 16.7191C1.29451 15.9605 -0.525312 12.0612 0.13591 8.20423C1.01691 3.067 5.63129 0 12.4795 0C16.9975 0 20.1723 0.955374 22.186 2.92028C25.4925 6.14659 25.1108 11.7755 24.4363 17.2643C23.3605 26.016 19.6292 28.2835 17.5012 28.8563C16.9919 28.9933 16.4705 29.06 15.9521 29.06Z" fill="#DB0012"/>
<path d="M47.1343 17.2401C47.1343 19.0043 46.7272 20.5954 45.9131 22.014C45.0988 23.4324 44.0056 24.539 42.6342 25.3349C41.5189 25.9491 40.3864 26.3596 39.237 26.5672C38.0873 26.7748 36.619 26.8785 34.8332 26.8785H29.7556V7.563H34.7738C36.8463 7.563 38.4721 7.6993 39.6515 7.97172C40.8307 8.24414 41.8349 8.61824 42.6637 9.09369C44.085 9.91559 45.1852 11.0073 45.9649 12.3692C46.7442 13.7315 47.1343 15.3547 47.1343 17.2401ZM44.085 17.2014C44.085 15.7142 43.8036 14.4447 43.241 13.3939C42.6786 12.3432 41.8445 11.5241 40.7394 10.9359C39.9597 10.5207 39.1257 10.2223 38.2377 10.0408C37.3494 9.85895 36.2441 9.76836 34.9218 9.76836H32.6866V24.6733H34.9218C36.2246 24.6733 37.3643 24.5825 38.3415 24.4009C39.3183 24.2192 40.2114 23.8819 41.0206 23.389C42.0367 22.7839 42.8017 21.9771 43.3151 20.9699C43.8282 19.9625 44.085 18.7061 44.085 17.2014ZM58.8581 15.0093H58.7101C58.5028 14.9573 58.283 14.9246 58.0513 14.9117C57.8193 14.8988 57.5405 14.8923 57.2149 14.8923C56.4649 14.8923 55.72 15.0351 54.9798 15.3206C54.2397 15.6058 53.5388 16.0294 52.8778 16.5918V26.8787H50.0948V12.3887H52.8776V14.5421C53.8937 13.7555 54.7798 13.1995 55.535 12.8753C56.2899 12.551 57.0226 12.3887 57.7331 12.3887L57.8601 12.3892C58.0835 12.3909 58.2558 12.3973 58.3771 12.4083C58.5198 12.4212 58.6804 12.4407 58.8581 12.4667V15.0093ZM74.4751 19.6402C74.4751 22.0789 73.8039 23.9619 72.462 25.2895C71.1201 26.6172 69.3335 27.2807 67.1036 27.2807C64.8038 27.2807 62.9957 26.5951 61.6781 25.2246C60.3606 23.8542 59.702 21.9925 59.702 19.6401C59.702 17.2189 60.3805 15.3378 61.7373 13.9972C63.0941 12.6565 64.8832 11.9865 67.1036 11.9865C69.3337 11.9865 71.1201 12.6544 72.462 13.9906C73.8039 15.3269 74.4751 17.2098 74.4751 19.6402ZM71.6035 19.6402C71.6035 17.7638 71.2136 16.3692 70.4341 15.4566C69.6544 14.5441 68.5443 14.088 67.1036 14.088C65.6528 14.088 64.5352 14.5441 63.7506 15.4566C62.9662 16.3692 62.5737 17.7638 62.5737 19.6402C62.5737 21.4563 62.966 22.8333 63.7506 23.7717C64.5352 24.7104 65.6528 25.1792 67.1036 25.1792C68.5341 25.1792 69.6423 24.7187 70.4267 23.7976C71.2112 22.8768 71.6035 21.4907 71.6035 19.6402ZM90.9361 19.6402C90.9361 22.0789 90.2645 23.9619 88.923 25.2895C87.5805 26.6173 85.7941 27.2807 83.5644 27.2807C81.2648 27.2807 79.4565 26.5951 78.1391 25.2246C76.8216 23.8542 76.163 21.9925 76.163 19.6401C76.163 17.2189 76.8415 15.3378 78.1985 13.9972C79.5553 12.6565 81.3442 11.9865 83.5646 11.9865C85.7945 11.9865 87.5809 12.6544 88.9232 13.9906C90.2645 15.3269 90.9361 17.2098 90.9361 19.6402ZM88.0641 19.6402C88.0641 17.7638 87.674 16.3692 86.8947 15.4566C86.115 14.5441 85.0048 14.088 83.5642 14.088C82.1133 14.088 80.9957 14.5441 80.2114 15.4566C79.4268 16.3692 79.0343 17.7638 79.0343 19.6402C79.0343 21.4563 79.4266 22.8333 80.2114 23.7717C80.9957 24.7104 82.1133 25.1792 83.5642 25.1792C84.9948 25.1792 86.1029 24.7187 86.8875 23.7976C87.6718 22.8768 88.0641 21.4907 88.0641 19.6402ZM96.635 26.8787H93.852V6.69391H96.635V26.8787ZM105.191 27.2289C104.085 27.2289 103.052 27.0992 102.09 26.8397C101.128 26.5802 100.33 26.3033 99.6993 26.0092V23.2723H99.8472C100.084 23.4364 100.363 23.6181 100.684 23.8171C101.004 24.0163 101.431 24.2238 101.964 24.4398C102.438 24.6297 102.958 24.7985 103.526 24.9457C104.093 25.0931 104.683 25.1663 105.295 25.1663C105.739 25.1663 106.212 25.1209 106.716 25.03C107.219 24.9394 107.594 24.8245 107.841 24.6865C108.186 24.4873 108.435 24.2758 108.588 24.0506C108.741 23.8259 108.818 23.4882 108.818 23.0391C108.818 22.4598 108.638 22.0226 108.278 21.7288C107.929 21.4452 107.322 21.2055 106.454 21.0102L106.36 20.9894C106.027 20.9164 105.599 20.832 105.075 20.7361L104.969 20.7168C104.397 20.6132 103.868 20.5009 103.385 20.3797C102.122 20.0597 101.204 19.5644 100.632 18.8943C100.059 18.2243 99.7733 17.4137 99.7733 16.4619C99.7733 15.1563 100.336 14.0925 101.461 13.2707C102.586 12.4488 104.081 12.0385 105.946 12.0385C106.864 12.0385 107.786 12.1377 108.714 12.3369C109.641 12.5358 110.421 12.7862 111.053 13.0892V15.6965H110.905C110.194 15.2035 109.402 14.8145 108.529 14.529C107.656 14.2435 106.775 14.1011 105.887 14.1011C104.969 14.1011 104.194 14.2697 103.563 14.607C102.931 14.9442 102.615 15.4547 102.615 16.1377C102.615 16.7428 102.803 17.1949 103.178 17.4933C103.553 17.7916 104.155 18.0362 104.984 18.2263C105.352 18.3109 105.758 18.3938 106.2 18.4748L106.368 18.5052C106.876 18.5961 107.411 18.7019 107.974 18.8231C109.198 19.0909 110.118 19.5367 110.735 20.1592C111.351 20.7819 111.66 21.6296 111.66 22.7018C111.66 23.3244 111.52 23.9147 111.238 24.4724C110.957 25.03 110.545 25.5081 110.002 25.9057C109.41 26.3383 108.741 26.6665 107.996 26.8916C107.251 27.116 106.316 27.2289 105.191 27.2289Z" fill="#747474"/>
</svg>
