<svg width="150" height="50" viewBox="0 0 150 50" fill="none" xmlns="http://www.w3.org/2000/svg">
<path d="M85.168 15.3469L92.3045 11.7789L85.168 8.00299V3L97.3829 9.63083V13.7129L85.168 20.3499V15.3469ZM17.7074 46.9865C15.1284 46.9865 13 45.2516 13 41.3762V41.1696C13 36.474 16.0352 34.8387 19.7552 34.8387H21.5014V33.9177C21.5014 31.9763 20.8962 30.8562 19.3786 30.8562C19.1173 30.812 18.8521 30.8417 18.5999 30.9436C18.3477 31.0455 18.1142 31.2173 17.9143 31.4479C17.7145 31.6785 17.5527 31.9627 17.4395 32.2824C17.3262 32.6021 17.264 32.9502 17.2567 33.3042H13.4562C13.7588 29.0106 16.2638 26.9745 19.6016 26.9745C23.0144 26.9745 25.5184 28.916 25.5184 33.7124V46.5733H21.6504V44.3245C21.2074 45.1712 20.6156 45.8574 19.9276 46.3219C19.2396 46.7864 18.4769 47.0147 17.7074 46.9865ZM21.5014 40.1491V38.3146H19.9098C17.9359 38.3146 16.9486 39.029 16.9486 40.7626V40.9692C16.9486 42.2971 17.5538 43.2168 18.9224 43.2168C19.245 43.267 19.5719 43.2252 19.8817 43.0942C20.1916 42.9633 20.4774 42.746 20.7207 42.4566C20.964 42.1673 21.1592 41.8122 21.2937 41.4147C21.4282 41.0171 21.499 40.5859 21.5014 40.1491ZM34.5492 46.9865C30.6006 46.9865 27.719 43.7184 27.719 37.1871V36.8872C27.719 30.3497 30.7542 26.8812 34.5492 26.8812C37.813 26.8812 40.466 29.1288 40.7741 34.1256H36.9801C36.7516 32.2911 35.9927 31.064 34.6287 31.064C32.9575 31.064 31.7471 32.8985 31.7471 36.6744V37.2879C31.7471 41.1634 32.8085 42.8982 34.6287 42.8982C35.3068 42.8731 35.952 42.4996 36.4317 41.8545C36.9114 41.2094 37.1891 40.3417 37.2078 39.4297H40.8537C40.6224 43.8204 38.42 46.9865 34.551 46.9865H34.5492ZM49.4245 46.9865C45.476 46.9865 42.5944 43.7184 42.5944 37.1871V36.8872C42.5944 30.3572 45.6296 26.8874 49.4245 26.8874C52.6883 26.8874 55.3414 29.135 55.6495 34.1318H51.8555C51.6269 32.2974 50.8681 31.0703 49.5041 31.0703C47.8329 31.0703 46.6225 32.9047 46.6225 36.6806V37.2941C46.6225 41.1696 47.6839 42.9045 49.5041 42.9045C50.1822 42.8793 50.8274 42.5059 51.3071 41.8608C51.7868 41.2156 52.0645 40.3479 52.0831 39.436H55.7236C55.4968 43.8204 53.2954 46.9865 49.4264 46.9865H49.4245ZM64.3739 46.9865C60.2773 46.9865 57.4697 43.7184 57.4697 37.2941V36.8872C57.4697 30.4567 60.4309 26.8874 64.2999 26.8874C67.8663 26.8874 70.8275 29.542 70.8275 35.9725V38.3209H61.5682C61.7218 41.7894 62.8582 43.1173 64.5294 43.1173C65.1132 43.1787 65.695 42.9692 66.1779 42.5238C66.6609 42.0784 67.0157 41.4239 67.1834 40.6693H70.9034C70.3722 44.2311 68.1707 46.9865 64.3758 46.9865H64.3739ZM61.5682 34.7354H66.9548C66.8808 31.8805 65.8934 30.6534 64.3008 30.6534C63.0118 30.7629 61.8708 31.6776 61.5682 34.7354ZM73.2538 27.3927H77.2764V30.2551C77.6871 29.2084 78.3136 28.3432 79.0808 27.7635C79.848 27.1838 80.7233 26.9142 81.6016 26.987C84.1806 26.987 85.9268 29.1288 85.9268 33.7248V46.5795H81.9042V34.5388C81.9042 32.2911 81.2194 31.2706 79.7814 31.2706C79.4346 31.2457 79.088 31.3226 78.7655 31.4961C78.443 31.6695 78.1525 31.9353 77.9142 32.2749C77.6758 32.6146 77.4953 33.02 77.3851 33.4629C77.275 33.9059 77.2379 34.3758 77.2764 34.8399V46.5733H73.2538V27.3927ZM93.2872 21.5758V27.3927H96.0198V31.3752H93.2872V40.4602C93.2872 41.8877 93.7434 42.602 94.7308 42.602C95.1964 42.6277 95.6609 42.523 96.0948 42.2946V46.4775C95.3553 46.7647 94.588 46.9019 93.8184 46.8845C90.7082 46.8845 89.2656 44.943 89.2656 41.0675V31.3752H87.5999V27.3927H89.2711V23.8197L93.2872 21.5758ZM111.044 46.5771H107.018V43.7246C106.634 44.7537 106.036 45.6106 105.297 46.1908C104.558 46.7711 103.709 47.0497 102.854 46.9927C100.275 46.9927 98.3749 44.8509 98.3749 40.3619V27.3927H102.391V39.6401C102.391 41.8877 103.076 42.9082 104.44 42.9082C104.785 42.9237 105.128 42.8404 105.447 42.6637C105.767 42.4871 106.054 42.2211 106.291 41.8836C106.528 41.546 106.709 41.1446 106.821 40.7058C106.934 40.2671 106.976 39.8011 106.945 39.3389V27.4947H110.967V46.5795L111.044 46.5771ZM114.005 27.3927H118.03V30.962C118.35 29.7881 118.945 28.7855 119.725 28.1047C120.504 27.4238 121.427 27.1015 122.355 27.1861V32.4953C119.622 32.4953 118.03 33.6153 118.03 36.7839V46.6828H114.007L114.005 27.3927ZM130.477 46.984C126.38 46.984 123.573 43.7159 123.573 37.2917V36.8847C123.573 30.4542 126.534 26.8849 130.403 26.8849C133.969 26.8849 136.931 29.5395 136.931 35.97V38.3184H127.665C127.818 41.7869 128.955 43.1148 130.626 43.1148C131.21 43.1762 131.792 42.9668 132.275 42.5213C132.757 42.0759 133.112 41.4214 133.28 40.6668H137C136.395 44.2286 134.192 46.984 130.472 46.984H130.477ZM127.591 34.7354H132.977C132.903 31.8805 131.916 30.6534 130.323 30.6534C129.108 30.7629 127.967 31.6776 127.591 34.7354Z" fill="#722ED1"/>
</svg>
