<svg width="150" height="50" viewBox="0 0 150 50" fill="none" xmlns="http://www.w3.org/2000/svg">
<path d="M91.11 16.2059C90.5913 16.0053 90.0539 15.8154 89.5005 15.6359C89.5914 15.2186 89.6749 14.8068 89.7491 14.402C90.9675 7.7546 90.1709 2.39943 87.4507 0.636284C84.8423 -1.05434 80.5764 0.708407 76.2682 4.92252C75.8539 5.32775 75.4384 5.75678 75.0231 6.20642C74.7464 5.90893 74.4702 5.62144 74.1946 5.34645C69.6794 0.840448 65.1536 -1.05844 62.4361 0.709807C59.8302 2.40533 59.0584 7.4397 60.1552 13.7395C60.2611 14.348 60.3849 14.9693 60.5249 15.6011C59.8844 15.8055 59.266 16.0234 58.6743 16.2551C53.3807 18.3295 50 21.5805 50 24.9527C50 28.4354 53.6292 31.9287 59.1429 34.0469C59.578 34.214 60.0295 34.3721 60.4948 34.5221C60.3438 35.2055 60.2124 35.8751 60.1021 36.5282C59.0564 42.7186 59.8731 47.634 62.472 49.3189C65.1565 51.0588 69.6618 49.2703 74.0489 44.9602C74.3956 44.6195 74.7436 44.2582 75.0922 43.8795C75.5441 44.3685 75.9952 44.8314 76.4439 45.2655C80.6933 49.3755 84.8902 51.0351 87.4868 49.3456C90.1686 47.6006 91.0402 42.3203 89.9086 35.8959C89.8222 35.4052 89.7216 34.904 89.6087 34.3938C89.9251 34.2887 90.2357 34.1801 90.5386 34.0673C96.2706 31.9327 100 28.482 100 24.9527C100 21.5683 96.5102 18.2954 91.11 16.2059ZM89.8668 31.7885C89.5934 31.8902 89.3129 31.9886 89.027 32.0839C88.3942 29.8323 87.5402 27.438 86.4951 24.9644C87.4924 22.5496 88.3134 20.186 88.9285 17.949C89.44 18.1153 89.9364 18.2908 90.4148 18.4759C95.0417 20.2662 97.864 22.9131 97.864 24.9527C97.864 27.1251 94.816 29.9453 89.8668 31.7885ZM87.8132 36.3621C88.3136 39.2029 88.3851 41.7713 88.0536 43.7791C87.7558 45.5833 87.157 46.7862 86.4165 47.2679C84.8407 48.293 81.4711 46.9605 77.8369 43.4456C77.4203 43.0427 77.0007 42.6125 76.5797 42.1571C77.9886 40.4253 79.3967 38.412 80.7709 36.176C83.188 35.9349 85.4717 35.5408 87.5426 35.0027C87.6446 35.4651 87.7352 35.9187 87.8132 36.3621ZM67.0461 47.0908C65.5066 47.7018 64.2805 47.7194 63.5393 47.239C61.9621 46.2166 61.3065 42.27 62.2008 36.9759C62.3033 36.3696 62.4252 35.7468 62.5657 35.1102C64.614 35.6193 66.8809 35.9856 69.3038 36.2064C70.6873 38.3943 72.136 40.4055 73.5959 42.1664C73.277 42.5125 72.9592 42.842 72.6433 43.1525C70.7034 45.0584 68.7594 46.4106 67.0461 47.0908ZM59.8337 31.7752C57.3957 30.8386 55.3822 29.6213 54.0021 28.293C52.762 27.0993 52.1359 25.9143 52.1359 24.9527C52.1359 22.9063 54.8503 20.2962 59.3774 18.5222C59.9267 18.3069 60.5017 18.104 61.0985 17.9135C61.7241 20.201 62.5449 22.5926 63.5354 25.0111C62.5321 27.4654 61.6997 29.8952 61.0679 32.2095C60.6425 32.0721 60.2303 31.9274 59.8337 31.7752ZM62.2514 13.2784C61.3117 7.88094 61.9358 3.80927 63.5062 2.78755C65.1789 1.69911 68.8778 3.251 72.7764 7.14171C73.0255 7.39039 73.2757 7.65067 73.5266 7.91995C72.0739 9.6732 70.6384 11.6692 69.2672 13.8443C66.9157 14.0893 64.6647 14.4828 62.5951 15.0098C62.465 14.4215 62.3497 13.8435 62.2514 13.2784ZM83.8191 19.2642C83.3244 18.3037 82.8165 17.3659 82.2987 16.4537C83.894 16.6804 85.4224 16.9813 86.8578 17.3495C86.4269 18.9018 85.8898 20.5248 85.2575 22.1886C84.804 21.2208 84.3243 20.245 83.8191 19.2642ZM75.0239 9.63569C76.0091 10.8354 76.9957 12.1748 77.9662 13.628C76.9882 13.5761 75.9982 13.5491 75 13.5491C74.0112 13.5491 73.0285 13.5755 72.0566 13.6265C73.028 12.1868 74.0232 10.8492 75.0239 9.63569ZM66.1722 19.2808C65.678 20.244 65.2072 21.2145 64.7608 22.1868C64.1388 20.5288 63.6067 18.8984 63.172 17.3241C64.5986 16.9653 66.1198 16.6719 67.705 16.4495C67.1799 17.3701 66.6678 18.315 66.1722 19.2808ZM67.7506 33.6271C66.1129 33.4217 64.5687 33.1434 63.1425 32.7945C63.5841 31.1921 64.128 29.5269 64.7632 27.8332C65.2108 28.8048 65.6835 29.7757 66.1807 30.741C66.6872 31.7244 67.212 32.6877 67.7506 33.6271ZM75.0829 40.4389C74.0706 39.2112 73.0608 37.8532 72.0746 36.3924C73.032 36.4346 74.008 36.4562 75 36.4562C76.0191 36.4562 77.0266 36.4304 78.0182 36.3808C77.0446 37.8679 76.0615 39.228 75.0829 40.4389ZM85.2779 27.7468C85.9462 29.4589 86.5096 31.1154 86.9569 32.6905C85.5072 33.0622 83.9419 33.3616 82.2928 33.584C82.8118 32.6596 83.3242 31.7057 83.8277 30.7245C84.337 29.7317 84.8206 28.7375 85.2779 27.7468ZM81.9775 29.5251C81.1959 31.0483 80.3934 32.5023 79.5788 33.8748C78.0951 33.9941 76.5623 34.0555 75 34.0555C73.444 34.0555 71.9305 34.0012 70.473 33.8948C69.6256 32.5043 68.8057 31.046 68.0291 29.5382C67.2546 28.0345 66.5419 26.5181 65.8959 25.0103C66.5417 23.4989 67.2527 21.9808 68.0228 20.4799L68.0226 20.4802C68.7948 18.9752 69.6074 17.5239 70.4471 16.1421C71.9341 16.0158 73.4589 15.9499 74.9999 15.9499C76.5479 15.9499 78.0747 16.0163 79.5613 16.1437C80.3881 17.5154 81.1952 18.962 81.9704 20.4672C82.7544 21.9892 83.4746 23.4972 84.1259 24.9762C83.4766 26.4805 82.758 28.0037 81.9775 29.5251ZM86.3837 2.71613C88.0581 3.80137 88.7092 8.17813 87.6572 13.9174C87.5901 14.2836 87.5146 14.6567 87.4325 15.0347C85.3581 14.4967 83.1055 14.0964 80.7471 13.8477C79.3732 11.6487 77.9495 9.64959 76.5205 7.91885C76.9047 7.50342 77.2884 7.1073 77.6704 6.73348C81.3618 3.12286 84.8118 1.69731 86.3837 2.71613ZM75 19.9344C77.4658 19.9344 79.4648 22.1811 79.4648 24.9527C79.4648 27.7241 77.4658 29.9709 75 29.9709C72.5342 29.9709 70.5352 27.7241 70.5352 24.9527C70.5352 22.1811 72.5342 19.9344 75 19.9344Z" fill="#00D8FF"/>
</svg>
