<svg width="150" height="50" viewBox="0 0 150 50" fill="none" xmlns="http://www.w3.org/2000/svg">
<path d="M71.486 9.73509C71.4939 9.63503 71.4794 9.53447 71.4436 9.4407C71.4078 9.34694 71.3516 9.26232 71.279 9.193C71.2064 9.12367 71.1193 9.07138 71.024 9.03991C70.9287 9.00845 70.8276 8.9986 70.728 9.01109H68.058C67.812 8.9823 67.5626 9.00975 67.3287 9.09139C67.0948 9.17303 66.8825 9.30671 66.7078 9.48236C66.5332 9.65801 66.4006 9.87103 66.3203 10.1054C66.2399 10.3397 66.2139 10.5892 66.244 10.8351V33.7041C66.2369 33.8046 66.2521 33.9054 66.2886 33.9993C66.325 34.0932 66.3818 34.1778 66.4548 34.2472C66.5278 34.3166 66.6153 34.369 66.7109 34.4006C66.8066 34.4322 66.908 34.4423 67.008 34.4301H69.672C69.9182 34.4589 70.1678 34.4315 70.4019 34.3497C70.6359 34.268 70.8483 34.1341 71.023 33.9582C71.1978 33.7823 71.3302 33.569 71.4104 33.3345C71.4906 33.0999 71.5165 32.8501 71.486 32.6041V9.73509ZM102 17.4491C102 17.0201 101.683 16.8081 101.251 16.8081H98.011C97.7579 16.7793 97.5026 16.8387 97.2882 16.9762C97.0738 17.1138 96.9134 17.321 96.834 17.5631L92.266 27.7011L85.9 17.6691C85.7288 17.3647 85.469 17.1196 85.1552 16.9663C84.8414 16.8131 84.4883 16.7589 84.143 16.8111H80.293C79.9727 16.788 79.6515 16.8414 79.3559 16.967C79.0603 17.0925 78.7988 17.2866 78.593 17.5331L71.809 24.8111L77.888 33.6771C77.9956 33.8984 78.1624 34.0855 78.3701 34.2176C78.5777 34.3497 78.8179 34.4215 79.064 34.4251H82.69C83.233 34.4251 83.549 34.2071 83.549 33.7511C83.527 33.484 83.4156 33.2322 83.233 33.0361L77.889 25.1241L81.942 20.7581L89.953 32.6001L86.417 40.0811C86.3036 40.2806 86.2302 40.5004 86.201 40.7281C86.201 41.1611 86.519 41.3691 86.952 41.3691H90.167C90.4198 41.3992 90.6751 41.3406 90.8896 41.2035C91.104 41.0664 91.2643 40.8591 91.343 40.6171L101.788 18.0971C101.903 17.8984 101.976 17.6776 102 17.4491V17.4491ZM54.523 22.9041C53.458 22.6641 53.123 22.3631 53.123 21.8261C53.123 21.4081 53.454 21.0751 54.414 21.0751H62.187C62.4326 21.1052 62.6817 21.079 62.9157 20.9987C63.1497 20.9183 63.3623 20.7858 63.5376 20.6111C63.7128 20.4365 63.846 20.2243 63.9272 19.9906C64.0083 19.7568 64.0353 19.5077 64.006 19.2621V17.5691C64.0186 17.4694 64.0088 17.3682 63.9775 17.2728C63.9462 17.1773 63.8941 17.0901 63.8249 17.0172C63.7557 16.9444 63.6712 16.8879 63.5775 16.8517C63.4838 16.8155 63.3832 16.8006 63.283 16.8081H54.183C50.126 16.8111 48 19.1601 48 22.1511C48 24.8151 49.636 26.4371 52.91 27.1651L58.134 28.3341C59.196 28.5691 59.526 28.8741 59.526 29.4181C59.526 29.8301 59.197 30.1631 58.24 30.1631H50.14C49.894 30.1318 49.644 30.157 49.4092 30.2369C49.1745 30.3167 48.961 30.4491 48.7851 30.624C48.6092 30.7988 48.4755 31.0115 48.3942 31.2458C48.3129 31.4801 48.2862 31.7299 48.316 31.9761V33.6661C48.3032 33.7656 48.3126 33.8667 48.3436 33.9621C48.3745 34.0575 48.4262 34.1449 48.495 34.218C48.5637 34.291 48.6478 34.3479 48.7412 34.3846C48.8346 34.4213 48.9349 34.4368 49.035 34.4301H57.924C62.724 34.4301 64.655 32.0801 64.655 29.2971C64.655 26.4211 62.998 24.7971 59.747 24.0741L54.523 22.9041Z" fill="#2376F3"/>
<path d="M71.486 9.73509C71.4939 9.63503 71.4794 9.53447 71.4436 9.4407C71.4078 9.34694 71.3516 9.26232 71.279 9.193C71.2064 9.12367 71.1193 9.07138 71.024 9.03991C70.9287 9.00845 70.8276 8.9986 70.728 9.01109H68.058C67.812 8.9823 67.5626 9.00975 67.3287 9.09139C67.0948 9.17303 66.8825 9.30671 66.7078 9.48236C66.5332 9.65801 66.4006 9.87103 66.3203 10.1054C66.2399 10.3397 66.2139 10.5892 66.244 10.8351V33.7041C66.2369 33.8046 66.2521 33.9054 66.2886 33.9993C66.325 34.0932 66.3818 34.1778 66.4548 34.2472C66.5278 34.3166 66.6153 34.369 66.7109 34.4006C66.8066 34.4322 66.908 34.4423 67.008 34.4301H69.672C69.9182 34.4589 70.1678 34.4315 70.4019 34.3497C70.6359 34.268 70.8483 34.1341 71.023 33.9582C71.1978 33.7823 71.3302 33.569 71.4104 33.3345C71.4906 33.0999 71.5165 32.8501 71.486 32.6041V9.73509ZM102 17.4491C102 17.0201 101.683 16.8081 101.251 16.8081H98.011C97.7579 16.7793 97.5026 16.8387 97.2882 16.9762C97.0738 17.1138 96.9134 17.321 96.834 17.5631L92.266 27.7011L85.9 17.6691C85.7288 17.3647 85.469 17.1196 85.1552 16.9663C84.8414 16.8131 84.4883 16.7589 84.143 16.8111H80.293C79.9727 16.788 79.6515 16.8414 79.3559 16.967C79.0603 17.0925 78.7988 17.2866 78.593 17.5331L71.809 24.8111L77.888 33.6771C77.9956 33.8984 78.1624 34.0855 78.3701 34.2176C78.5777 34.3497 78.8179 34.4215 79.064 34.4251H82.69C83.233 34.4251 83.549 34.2071 83.549 33.7511C83.527 33.484 83.4156 33.2322 83.233 33.0361L77.889 25.1241L81.942 20.7581L89.953 32.6001L86.417 40.0811C86.3036 40.2806 86.2302 40.5004 86.201 40.7281C86.201 41.1611 86.519 41.3691 86.952 41.3691H90.167C90.4198 41.3992 90.6751 41.3406 90.8896 41.2035C91.104 41.0664 91.2643 40.8591 91.343 40.6171L101.788 18.0971C101.903 17.8984 101.976 17.6776 102 17.4491V17.4491ZM54.523 22.9041C53.458 22.6641 53.123 22.3631 53.123 21.8261C53.123 21.4081 53.454 21.0751 54.414 21.0751H62.187C62.4326 21.1052 62.6817 21.079 62.9157 20.9987C63.1497 20.9183 63.3623 20.7858 63.5376 20.6111C63.7128 20.4365 63.846 20.2243 63.9272 19.9906C64.0083 19.7568 64.0353 19.5077 64.006 19.2621V17.5691C64.0186 17.4694 64.0088 17.3682 63.9775 17.2728C63.9462 17.1773 63.8941 17.0901 63.8249 17.0172C63.7557 16.9444 63.6712 16.8879 63.5775 16.8517C63.4838 16.8155 63.3832 16.8006 63.283 16.8081H54.183C50.126 16.8111 48 19.1601 48 22.1511C48 24.8151 49.636 26.4371 52.91 27.1651L58.134 28.3341C59.196 28.5691 59.526 28.8741 59.526 29.4181C59.526 29.8301 59.197 30.1631 58.24 30.1631H50.14C49.894 30.1318 49.644 30.157 49.4092 30.2369C49.1745 30.3167 48.961 30.4491 48.7851 30.624C48.6092 30.7988 48.4755 31.0115 48.3942 31.2458C48.3129 31.4801 48.2862 31.7299 48.316 31.9761V33.6661C48.3032 33.7656 48.3126 33.8667 48.3436 33.9621C48.3745 34.0575 48.4262 34.1449 48.495 34.218C48.5637 34.291 48.6478 34.3479 48.7412 34.3846C48.8346 34.4213 48.9349 34.4368 49.035 34.4301H57.924C62.724 34.4301 64.655 32.0801 64.655 29.2971C64.655 26.4211 62.998 24.7971 59.747 24.0741L54.523 22.9041Z" fill="#2376F3"/>
<path d="M71.486 9.73509C71.4939 9.63503 71.4794 9.53447 71.4436 9.4407C71.4078 9.34694 71.3516 9.26232 71.279 9.193C71.2064 9.12367 71.1193 9.07138 71.024 9.03991C70.9287 9.00845 70.8276 8.9986 70.728 9.01109H68.058C67.812 8.9823 67.5626 9.00975 67.3287 9.09139C67.0948 9.17303 66.8825 9.30671 66.7078 9.48236C66.5332 9.65801 66.4006 9.87103 66.3203 10.1054C66.2399 10.3397 66.2139 10.5892 66.244 10.8351V33.7041C66.2369 33.8046 66.2521 33.9054 66.2886 33.9993C66.325 34.0932 66.3818 34.1778 66.4548 34.2472C66.5278 34.3166 66.6153 34.369 66.7109 34.4006C66.8066 34.4322 66.908 34.4423 67.008 34.4301H69.672C69.9182 34.4589 70.1678 34.4315 70.4019 34.3497C70.6359 34.268 70.8483 34.1341 71.023 33.9582C71.1978 33.7823 71.3302 33.569 71.4104 33.3345C71.4906 33.0999 71.5165 32.8501 71.486 32.6041V9.73509ZM102 17.4491C102 17.0201 101.683 16.8081 101.251 16.8081H98.011C97.7579 16.7793 97.5026 16.8387 97.2882 16.9762C97.0738 17.1138 96.9134 17.321 96.834 17.5631L92.266 27.7011L85.9 17.6691C85.7288 17.3647 85.469 17.1196 85.1552 16.9663C84.8414 16.8131 84.4883 16.7589 84.143 16.8111H80.293C79.9727 16.788 79.6515 16.8414 79.3559 16.967C79.0603 17.0925 78.7988 17.2866 78.593 17.5331L71.809 24.8111L77.888 33.6771C77.9956 33.8984 78.1624 34.0855 78.3701 34.2176C78.5777 34.3497 78.8179 34.4215 79.064 34.4251H82.69C83.233 34.4251 83.549 34.2071 83.549 33.7511C83.527 33.484 83.4156 33.2322 83.233 33.0361L77.889 25.1241L81.942 20.7581L89.953 32.6001L86.417 40.0811C86.3036 40.2806 86.2302 40.5004 86.201 40.7281C86.201 41.1611 86.519 41.3691 86.952 41.3691H90.167C90.4198 41.3992 90.6751 41.3406 90.8896 41.2035C91.104 41.0664 91.2643 40.8591 91.343 40.6171L101.788 18.0971C101.903 17.8984 101.976 17.6776 102 17.4491V17.4491ZM54.523 22.9041C53.458 22.6641 53.123 22.3631 53.123 21.8261C53.123 21.4081 53.454 21.0751 54.414 21.0751H62.187C62.4326 21.1052 62.6817 21.079 62.9157 20.9987C63.1497 20.9183 63.3623 20.7858 63.5376 20.6111C63.7128 20.4365 63.846 20.2243 63.9272 19.9906C64.0083 19.7568 64.0353 19.5077 64.006 19.2621V17.5691C64.0186 17.4694 64.0088 17.3682 63.9775 17.2728C63.9462 17.1773 63.8941 17.0901 63.8249 17.0172C63.7557 16.9444 63.6712 16.8879 63.5775 16.8517C63.4838 16.8155 63.3832 16.8006 63.283 16.8081H54.183C50.126 16.8111 48 19.1601 48 22.1511C48 24.8151 49.636 26.4371 52.91 27.1651L58.134 28.3341C59.196 28.5691 59.526 28.8741 59.526 29.4181C59.526 29.8301 59.197 30.1631 58.24 30.1631H50.14C49.894 30.1318 49.644 30.157 49.4092 30.2369C49.1745 30.3167 48.961 30.4491 48.7851 30.624C48.6092 30.7988 48.4755 31.0115 48.3942 31.2458C48.3129 31.4801 48.2862 31.7299 48.316 31.9761V33.6661C48.3032 33.7656 48.3126 33.8667 48.3436 33.9621C48.3745 34.0575 48.4262 34.1449 48.495 34.218C48.5637 34.291 48.6478 34.3479 48.7412 34.3846C48.8346 34.4213 48.9349 34.4368 49.035 34.4301H57.924C62.724 34.4301 64.655 32.0801 64.655 29.2971C64.655 26.4211 62.998 24.7971 59.747 24.0741L54.523 22.9041Z" fill="#2376F3"/>
</svg>
