<svg width="150" height="50" viewBox="0 0 150 50" fill="none" xmlns="http://www.w3.org/2000/svg">
<path d="M47.453 33.3876C47.2701 32.8841 47.0564 32.397 46.8531 31.9456C46.5401 31.2513 46.2123 30.5557 45.8952 29.8833L45.8701 29.83C43.0421 23.8236 40.0067 17.7351 36.8485 11.7338L36.7145 11.4789C36.3923 10.8661 36.0592 10.2324 35.7174 9.60982C35.3121 8.82187 34.8203 8.0795 34.2507 7.39585C33.6095 6.64564 32.808 6.04228 31.9027 5.62832C30.9974 5.21436 30.0103 5 29.0111 5C28.0119 5 27.0249 5.21485 26.1196 5.62903C25.2145 6.04321 24.4131 6.64677 23.7721 7.39713C23.2032 8.08095 22.7117 8.82316 22.3062 9.61072C21.9615 10.2389 21.6253 10.8785 21.3002 11.497L21.1758 11.7337C18.0174 17.7355 14.9821 23.824 12.1541 29.8298L12.1129 29.9172C11.8013 30.5787 11.4791 31.2627 11.1714 31.9453C10.968 32.3963 10.7545 32.8831 10.5714 33.3878C10.047 34.763 9.87994 36.2441 10.0851 37.6981C10.3028 39.1675 10.9087 40.5558 11.843 41.7255C12.7773 42.8951 14.0075 43.8055 15.4117 44.3665C16.4724 44.7873 17.6065 45.0025 18.7509 45C19.1104 45 19.4697 44.9793 19.8268 44.9386C21.2742 44.7577 22.6703 44.2957 23.933 43.5798C25.5893 42.6672 27.2251 41.3297 29.0121 39.4185C30.7991 41.3297 32.4349 42.6672 34.0913 43.5798C35.3539 44.2958 36.75 44.7577 38.1975 44.9386C38.5546 44.9793 38.9139 45 39.2734 45C40.4178 45.0025 41.5517 44.7873 42.6123 44.3665C44.0166 43.8055 45.2469 42.8951 46.1812 41.7255C47.1155 40.5558 47.7216 39.1676 47.9392 37.6981C48.1442 36.244 47.9771 34.7628 47.453 33.3876ZM29.0121 35.4712C26.8 32.7211 25.3804 30.1672 24.8824 28.0262C24.6783 27.224 24.6301 26.3914 24.7404 25.5716C24.8274 24.9707 25.0525 24.397 25.3987 23.8935C25.8246 23.3517 26.372 22.913 26.9985 22.6111C27.6251 22.3094 28.3141 22.1524 29.0124 22.1524C29.7108 22.1524 30.3997 22.3095 31.0262 22.6115C31.6528 22.9134 32.2 23.3521 32.626 23.8939C32.9721 24.3976 33.1972 24.9714 33.2843 25.5724C33.3942 26.3925 33.3459 27.2254 33.1415 28.0279C32.6429 30.1686 31.2238 32.7217 29.0121 35.4712ZM45.3554 37.3361C45.2033 38.3635 44.7795 39.3342 44.1263 40.152C43.473 40.9698 42.6128 41.6065 41.631 41.9987C40.6381 42.3888 39.5607 42.5271 38.4988 42.4006C37.3949 42.2611 36.3311 41.9048 35.3714 41.353C33.897 40.5406 32.4046 39.2935 30.7252 37.464C33.3987 34.2307 35.0682 31.2506 35.6863 28.5962C35.9645 27.48 36.0248 26.3224 35.8641 25.1844C35.7183 24.204 35.3472 23.2687 34.7787 22.4491C34.1128 21.5649 33.2441 20.846 32.2426 20.3506C31.241 19.8552 30.1346 19.5971 29.0124 19.5971C27.8903 19.5971 26.7838 19.8551 25.7822 20.3504C24.7805 20.8456 23.9118 21.5644 23.2459 22.4486C22.6776 23.268 22.3065 24.203 22.1605 25.1831C21.9997 26.3207 22.0597 27.4777 22.3373 28.5936C22.9551 31.2491 24.6247 34.23 27.2991 37.4642C25.6197 39.2935 24.1272 40.5406 22.6529 41.3531C21.6931 41.9048 20.6294 42.2612 19.5256 42.4006C18.4635 42.5271 17.3861 42.3888 16.3932 41.9987C15.4113 41.6065 14.5511 40.9698 13.8979 40.1521C13.2447 39.3342 12.821 38.3635 12.6689 37.3361C12.5226 36.2917 12.6472 35.2281 13.031 34.2432C13.1769 33.841 13.3476 33.4462 13.5592 32.9772C13.8584 32.3137 14.176 31.6393 14.4832 30.9872L14.5244 30.8996C17.3366 24.9274 20.3551 18.8727 23.4962 12.9037L23.6212 12.666C23.941 12.0575 24.2717 11.4283 24.6054 10.8204C24.9245 10.1938 25.3108 9.60213 25.7578 9.0555C26.1538 8.58628 26.6509 8.20851 27.2133 7.94917C27.7759 7.68982 28.3899 7.55527 29.0116 7.55527C29.6333 7.55527 30.2475 7.68963 30.8099 7.94888C31.3725 8.20813 31.8696 8.58583 32.2657 9.05498C32.7129 9.60121 33.0993 10.1926 33.4182 10.8192C33.7488 11.4218 34.0766 12.0453 34.3937 12.6482L34.528 12.9039C37.6691 18.8724 40.6875 24.9269 43.4999 30.9001L43.5253 30.9538C43.8378 31.617 44.1609 32.3023 44.4651 32.9775C44.6769 33.4471 44.8479 33.8422 44.9935 34.243C45.3771 35.228 45.5016 36.2916 45.3554 37.3361Z" fill="#FF385C"/>
<path d="M63.128 35.1495C62.1095 35.1495 61.1726 34.9492 60.317 34.5489C59.4616 34.1485 58.7284 33.5879 58.0765 32.8671C57.4247 32.1465 56.9359 31.3056 56.5692 30.3847C56.2026 29.4237 56.0396 28.3827 56.0396 27.2616C56.0396 26.1405 56.2433 25.0594 56.6099 24.0984C56.9766 23.1375 57.5061 22.2966 58.158 21.5359C58.8098 20.8151 59.5838 20.2145 60.48 19.8141C61.3763 19.4137 62.3133 19.2135 63.3724 19.2135C64.3909 19.2135 65.2871 19.4137 66.1019 19.8541C66.9167 20.2546 67.5684 20.8551 68.098 21.6159L68.2202 19.654H71.9682V34.749H68.2202L68.098 32.5469C67.5684 33.3476 66.8759 33.9882 65.9797 34.4687C65.1649 34.9092 64.1872 35.1495 63.128 35.1495ZM64.1058 31.5459C64.839 31.5459 65.4908 31.3456 66.1019 30.9852C66.6722 30.5849 67.1203 30.0644 67.487 29.4237C67.8129 28.7831 67.9758 28.0224 67.9758 27.1815C67.9758 26.3406 67.8129 25.5799 67.487 24.9392C67.1611 24.2986 66.6722 23.7781 66.1019 23.3777C65.5315 22.9772 64.839 22.8171 64.1058 22.8171C63.3724 22.8171 62.7206 23.0174 62.1095 23.3777C61.5393 23.7781 61.0912 24.2986 60.7245 24.9392C60.3986 25.5799 60.2356 26.3406 60.2356 27.1815C60.2356 28.0224 60.3986 28.7831 60.7245 29.4237C61.0504 30.0644 61.5393 30.5849 62.1095 30.9852C62.7206 31.3456 63.3724 31.5459 64.1058 31.5459ZM78.364 15.5699C78.364 16.0103 78.2826 16.4107 78.0788 16.731C77.8751 17.0514 77.59 17.3316 77.2233 17.5319C76.8566 17.732 76.4493 17.8121 76.042 17.8121C75.6345 17.8121 75.2272 17.732 74.8605 17.5319C74.4938 17.3316 74.2087 17.0514 74.0051 16.731C73.8013 16.3707 73.7198 16.0103 73.7198 15.5699C73.7198 15.1294 73.8013 14.729 74.0051 14.4087C74.2087 14.0483 74.4938 13.8081 74.8605 13.6079C75.2272 13.4077 75.6345 13.3276 76.042 13.3276C76.4493 13.3276 76.8566 13.4077 77.2233 13.6079C77.59 13.8081 77.8751 14.0884 78.0788 14.4087C78.2418 14.729 78.364 15.0894 78.364 15.5699ZM74.0051 34.709V19.6139H78.0788V34.709H74.0051ZM88.9559 23.5779V23.6179C88.7522 23.5379 88.5078 23.4977 88.304 23.4577C88.0596 23.4177 87.8558 23.4177 87.6115 23.4177C86.4708 23.4177 85.6153 23.738 85.0449 24.4187C84.4339 25.0994 84.1487 26.0604 84.1487 27.3016V34.709H80.075V19.6139H83.8228L83.945 21.8962C84.3525 21.0954 84.8413 20.4947 85.5338 20.0544C86.1856 19.6139 86.9596 19.4137 87.8559 19.4137C88.1411 19.4137 88.4262 19.4537 88.6706 19.4937C88.7929 19.5339 88.8743 19.5339 88.9559 19.5739V23.5779ZM90.5853 34.709V13.4077H94.6591V21.5359C95.2295 20.8151 95.8813 20.2545 96.6961 19.8141C97.5108 19.4137 98.4071 19.1735 99.4255 19.1735C100.444 19.1735 101.381 19.3736 102.236 19.7741C103.092 20.1745 103.825 20.735 104.477 21.4557C105.129 22.1765 105.618 23.0174 105.984 23.9382C106.351 24.8992 106.514 25.9402 106.514 27.0614C106.514 28.1825 106.31 29.2636 105.944 30.2245C105.577 31.1855 105.047 32.0264 104.395 32.7871C103.744 33.5079 102.97 34.1084 102.073 34.5089C101.177 34.9092 100.24 35.1094 99.1811 35.1094C98.1626 35.1094 97.2664 34.9092 96.4516 34.4687C95.6368 34.0684 94.985 33.4677 94.4555 32.707L94.3333 34.669L90.5853 34.709ZM98.4477 31.5459C99.1811 31.5459 99.8329 31.3456 100.444 30.9852C101.014 30.5849 101.462 30.0644 101.829 29.4237C102.155 28.7831 102.318 28.0224 102.318 27.1815C102.318 26.3406 102.155 25.5799 101.829 24.9392C101.462 24.2986 101.014 23.7781 100.444 23.3777C99.8737 22.9772 99.1811 22.8171 98.4477 22.8171C97.7145 22.8171 97.0627 23.0174 96.4516 23.3777C95.8813 23.7781 95.4332 24.2986 95.0665 24.9392C94.7406 25.5799 94.5777 26.3406 94.5777 27.1815C94.5777 28.0224 94.7406 28.7831 95.0665 29.4237C95.3924 30.0644 95.8813 30.5849 96.4516 30.9852C97.0627 31.3456 97.7145 31.5459 98.4477 31.5459ZM108.062 34.709V19.6139H111.81L111.932 21.5759C112.38 20.8551 112.991 20.2946 113.765 19.8541C114.539 19.4137 115.435 19.2135 116.454 19.2135C117.595 19.2135 118.572 19.4937 119.387 20.0144C120.242 20.5349 120.894 21.2956 121.343 22.2566C121.791 23.2175 122.035 24.3786 122.035 25.7V34.749H117.961V26.2205C117.961 25.1795 117.717 24.3386 117.228 23.738C116.739 23.1375 116.087 22.8171 115.232 22.8171C114.621 22.8171 114.091 22.9372 113.602 23.2175C113.154 23.4977 112.788 23.8581 112.502 24.3787C112.217 24.8591 112.095 25.4597 112.095 26.0604V34.709H108.062ZM124.072 34.709V13.4077H128.146V21.5359C128.716 20.8151 129.368 20.2545 130.183 19.8141C130.997 19.4137 131.894 19.1735 132.912 19.1735C133.931 19.1735 134.867 19.3736 135.723 19.7741C136.578 20.1745 137.312 20.735 137.963 21.4557C138.616 22.1765 139.104 23.0174 139.471 23.9382C139.838 24.8992 140 25.9402 140 27.0614C140 28.1825 139.797 29.2636 139.43 30.2245C139.063 31.1855 138.534 32.0264 137.882 32.7871C137.23 33.5079 136.456 34.1084 135.56 34.5089C134.664 34.9092 133.727 35.1094 132.668 35.1094C131.649 35.1094 130.753 34.9092 129.938 34.4687C129.123 34.0684 128.472 33.4677 127.942 32.707L127.82 34.669L124.072 34.709ZM131.975 31.5459C132.708 31.5459 133.36 31.3456 133.971 30.9852C134.542 30.5849 134.99 30.0644 135.356 29.4237C135.682 28.7831 135.845 28.0224 135.845 27.1815C135.845 26.3406 135.682 25.5799 135.356 24.9392C135.03 24.2986 134.542 23.7781 133.971 23.3777C133.401 22.9772 132.708 22.8171 131.975 22.8171C131.242 22.8171 130.59 23.0174 129.979 23.3777C129.409 23.7781 128.96 24.2986 128.594 24.9392C128.227 25.5799 128.105 26.3406 128.105 27.1815C128.105 28.0224 128.268 28.7831 128.594 29.4237C128.92 30.0644 129.409 30.5849 129.979 30.9852C130.59 31.3456 131.201 31.5459 131.975 31.5459Z" fill="#FF385C"/>
</svg>
